<svg xmlns="http://www.w3.org/2000/svg" xmlns:xlink="http://www.w3.org/1999/xlink" version="1.1" width="847.6" height="625.1" viewBox="29.9 14.9 847.6 625.1"><g><g transform="translate(262.5,69)"><g><g>
<path d="M585,0H0v495h585V0L585,0z" stroke="#000000" stroke-dasharray="none" fill="#FFFFFF"/>
<rect x="25.6" y="22.6" width="533.9" height="449.9" fill="none"/>
<circle fill="none" cx="292.5" cy="0" r="0.1"/>
<circle fill="none" cx="437.5" cy="0" r="0.1"/>
<circle fill="none" cx="585" cy="124.8" r="0.1"/>
<circle fill="none" cx="585" cy="247.5" r="0.1"/>
<circle fill="none" cx="585" cy="370.2" r="0.1"/>
<circle fill="none" cx="437.5" cy="495" r="0.1"/>
<circle fill="none" cx="292.5" cy="495" r="0.1"/>
<circle fill="none" cx="147.6" cy="495" r="0.1"/>
<circle fill="none" cx="0" cy="370.2" r="0.1"/>
<circle fill="none" cx="0" cy="247.5" r="0.1"/>
<circle fill="none" cx="0" cy="124.8" r="0.1"/>
<circle fill="none" cx="147.6" cy="0" r="0.1"/>
</g></g><rect stroke="none" stroke-width="0" fill="#FFFFFF" x="0" y="0" width="0" height="0" transform="translate(584.9,247.4)"/><path stroke="#000000" fill="none" d=""/><text font-family="OpenSansCondensedLight" font-size="14pt" fill="black" transform="translate(584.9,247.4)"/><rect stroke-width="0" fill="none" width="533.9" height="449.9" transform="translate(25.6,22.6)"/><text font-family="OpenSansCondensedLight" font-size="14pt" fill="black" transform="translate(25.6,22.6)" text-anchor="middle"><tspan x="266.9" y="16.8">NODE</tspan></text><path stroke="#000000" fill="none" transform="translate(25.6,22.6)" d="M 0 0"/></g><g transform="translate(321.8,120)"><g><g>
<path d="M420,0H0v375h420V0L420,0z" stroke="#000000" stroke-dasharray="none" fill="#FFFFFF"/>
<rect x="18.4" y="17.1" width="383.3" height="340.8" fill="none"/>
<circle fill="none" cx="210" cy="0" r="0.1"/>
<circle fill="none" cx="314.1" cy="0" r="0.1"/>
<circle fill="none" cx="420" cy="94.6" r="0.1"/>
<circle fill="none" cx="420" cy="187.5" r="0.1"/>
<circle fill="none" cx="420" cy="280.4" r="0.1"/>
<circle fill="none" cx="314.1" cy="375" r="0.1"/>
<circle fill="none" cx="210" cy="375" r="0.1"/>
<circle fill="none" cx="106" cy="375" r="0.1"/>
<circle fill="none" cx="0" cy="280.4" r="0.1"/>
<circle fill="none" cx="0" cy="187.5" r="0.1"/>
<circle fill="none" cx="0" cy="94.6" r="0.1"/>
<circle fill="none" cx="106" cy="0" r="0.1"/>
</g></g><rect stroke="none" stroke-width="1" fill="#FFFFFF" x="0" y="0" width="40" height="20" transform="translate(459.9,177.4)"/><path stroke="#000000" fill="none" d="M420,187.5 C436.9,204.4 442.9,170.5 459.9 187.4"/><text font-family="OpenSansCondensedLight" font-size="14pt" fill="black" transform="translate(459.9,177.4)" text-anchor="middle"><tspan x="20" y="16.3">102</tspan></text><rect stroke-width="0" fill="none" width="383.3" height="340.8" transform="translate(18.4,17.1)"/><text font-family="OpenSansCondensedLight" font-size="14pt" fill="black" transform="translate(18.4,17.1)" text-anchor="middle"><tspan x="191.6" y="176.7"> </tspan></text><path stroke="#000000" fill="none" transform="translate(18.4,17.1)" d="M 0 0"/></g><g transform="translate(375,150)"><g transform="rotate(180,210,7.5)"><g>
<g fill="#FFFFFF">
    <rect y="0" width="420" height="15"/>
</g>
<g stroke="#000000" stroke-dasharray="none">
    <line fill="none" stroke-linejoin="round" x1="0" y1="15" x2="415.2" y2="15"/>
</g>
<rect x="16.4" y="0.6" fill="none" width="387.1" height="13.8"/>
<circle fill="none" cx="223.1" cy="15" r="0.1"/>
<circle fill="none" cx="293.8" cy="15" r="0.1"/>
<circle fill="none" cx="364.5" cy="15" r="0.1"/>
<circle fill="none" cx="399.8" cy="15" r="0.1"/>
<circle fill="none" cx="329.2" cy="15" r="0.1"/>
<circle fill="none" cx="258.5" cy="15" r="0.1"/>
<circle fill="none" cx="187.8" cy="15" r="0.1"/>
<circle fill="none" cx="117.1" cy="15" r="0.1"/>
<circle fill="none" cx="46.4" cy="15" r="0.1"/>
<circle fill="none" cx="11.1" cy="15" r="0.1"/>
<circle fill="none" cx="81.8" cy="15" r="0.1"/>
<circle fill="none" cx="152.5" cy="15" r="0.1"/>
</g></g><rect stroke="none" stroke-width="0" fill="#FFFFFF" x="0" y="0" width="0" height="0" transform="translate(161.4,-0.1)"/><path stroke="#000000" fill="none" d=""/><text font-family="OpenSansCondensedLight" font-size="14pt" fill="black" transform="translate(161.4,-0.1)"/><rect stroke-width="0" fill="none" width="387.1" height="13.8" transform="translate(16.4,0.6)"/><text font-family="OpenSansCondensedLight" font-size="14pt" fill="black" transform="translate(16.4,0.6)" text-anchor="middle"><tspan x="193.6" y="13.2"> </tspan></text><path stroke="#000000" fill="none" transform="translate(16.4,0.6)" d="M 0 0"/></g><g transform="translate(375,535)"><g transform="rotate(180,210,7.5)"><g>
<g fill="#FFFFFF">
    <rect y="0" width="420" height="15"/>
</g>
<g stroke="#000000" stroke-dasharray="none">
    <line fill="none" stroke-linejoin="round" x1="0" y1="15" x2="415.2" y2="15"/>
</g>
<rect x="16.4" y="0.6" fill="none" width="387.1" height="13.8"/>
<circle fill="none" cx="223.1" cy="15" r="0.1"/>
<circle fill="none" cx="293.8" cy="15" r="0.1"/>
<circle fill="none" cx="364.5" cy="15" r="0.1"/>
<circle fill="none" cx="399.8" cy="15" r="0.1"/>
<circle fill="none" cx="329.2" cy="15" r="0.1"/>
<circle fill="none" cx="258.5" cy="15" r="0.1"/>
<circle fill="none" cx="187.8" cy="15" r="0.1"/>
<circle fill="none" cx="117.1" cy="15" r="0.1"/>
<circle fill="none" cx="46.4" cy="15" r="0.1"/>
<circle fill="none" cx="11.1" cy="15" r="0.1"/>
<circle fill="none" cx="81.8" cy="15" r="0.1"/>
<circle fill="none" cx="152.5" cy="15" r="0.1"/>
</g></g><rect stroke="none" stroke-width="0" fill="#FFFFFF" x="0" y="0" width="0" height="0" transform="translate(161.4,-0.1)"/><path stroke="#000000" fill="none" d=""/><text font-family="OpenSansCondensedLight" font-size="14pt" fill="black" transform="translate(161.4,-0.1)"/><rect stroke-width="0" fill="none" width="387.1" height="13.8" transform="translate(16.4,0.6)"/><text font-family="OpenSansCondensedLight" font-size="14pt" fill="black" transform="translate(16.4,0.6)" text-anchor="middle"><tspan x="193.6" y="13.2"> </tspan></text><path stroke="#000000" fill="none" transform="translate(16.4,0.6)" d="M 0 0"/></g><g transform="translate(795,150)"><g><g>
<g fill="#FFFFFF">
    <rect width="15" height="385"/>
</g>
<g stroke="#000000" stroke-dasharray="none">
    <line fill="none" stroke-linejoin="round" x1="0" y1="0" x2="0" y2="385"/>
</g>
<rect fill="none" width="15" height="385"/>
<circle fill="none" cx="0" cy="46.4" r="0.1"/>
<circle fill="none" cx="0" cy="111.5" r="0.1"/>
<circle fill="none" cx="0" cy="176.3" r="0.1"/>
<circle fill="none" cx="0" cy="241.1" r="0.1"/>
<circle fill="none" cx="0" cy="305.9" r="0.1"/>
<circle fill="none" cx="0" cy="370.7" r="0.1"/>
<circle fill="none" cx="0" cy="338.3" r="0.1"/>
<circle fill="none" cx="0" cy="273.5" r="0.1"/>
<circle fill="none" cx="0" cy="208.7" r="0.1"/>
<circle fill="none" cx="0" cy="143.9" r="0.1"/>
<circle fill="none" cx="0" cy="78.9" r="0.1"/>
<circle fill="none" cx="0" cy="14.3" r="0.1"/>
</g></g><rect stroke="none" stroke-width="0" fill="#FFFFFF" x="0" y="0" width="0" height="0" transform="translate(-0.1,143.8)"/><path stroke="#000000" fill="none" d=""/><text font-family="OpenSansCondensedLight" font-size="14pt" fill="black" transform="translate(-0.1,143.8)"/><rect stroke-width="0" fill="none" width="15" height="385" transform="translate(0,0)"/><text font-family="OpenSansCondensedLight" font-size="14pt" fill="black" transform="translate(0,0)" text-anchor="middle"><tspan x="7.5" y="198.8"> </tspan></text><path stroke="#000000" fill="none" transform="translate(0,0)" d="M 0 0"/></g><g transform="translate(360,150)"><g transform="rotate(180,7.5,192.5)"><g>
<g fill="#FFFFFF">
    <rect width="15" height="385"/>
</g>
<g stroke="#000000" stroke-dasharray="none">
    <line fill="none" stroke-linejoin="round" x1="0" y1="0" x2="0" y2="385"/>
</g>
<rect fill="none" width="15" height="385"/>
<circle fill="none" cx="0" cy="46.4" r="0.1"/>
<circle fill="none" cx="0" cy="111.5" r="0.1"/>
<circle fill="none" cx="0" cy="176.3" r="0.1"/>
<circle fill="none" cx="0" cy="241.1" r="0.1"/>
<circle fill="none" cx="0" cy="305.9" r="0.1"/>
<circle fill="none" cx="0" cy="370.7" r="0.1"/>
<circle fill="none" cx="0" cy="338.3" r="0.1"/>
<circle fill="none" cx="0" cy="273.5" r="0.1"/>
<circle fill="none" cx="0" cy="208.7" r="0.1"/>
<circle fill="none" cx="0" cy="143.9" r="0.1"/>
<circle fill="none" cx="0" cy="78.9" r="0.1"/>
<circle fill="none" cx="0" cy="14.3" r="0.1"/>
</g></g><rect stroke="none" stroke-width="0" fill="#FFFFFF" x="0" y="0" width="0" height="0" transform="translate(14.9,241)"/><path stroke="#000000" fill="none" d=""/><text font-family="OpenSansCondensedLight" font-size="14pt" fill="black" transform="translate(14.9,241)"/><rect stroke-width="0" fill="none" width="15" height="385" transform="translate(0,0)"/><text font-family="OpenSansCondensedLight" font-size="14pt" fill="black" transform="translate(0,0)" text-anchor="middle"><tspan x="7.5" y="198.8"> </tspan></text><path stroke="#000000" fill="none" transform="translate(0,0)" d="M 0 0"/></g><g><path stroke="black" stroke-dasharray="none" d="M 532 150 532 120" fill="none"/><path fill="black" stroke="black" d="" transform="translate(532,150) scale(1,1) rotate(-90)"/><path fill="black" stroke="black" d="" transform="translate(532,120) scale(1,1) rotate(-270)"/><g><g label-idx="0" cursor="move" transform="translate(532, 135)"><rect fill="white" rx="3" ry="3" x="0" y="0" width="0" height="0"/><text text-anchor="middle" font-size="14pt" font-family="OpenSansCondensedLight" y="0.8em" display="none" xml:space="preserve" transform="translate(0,0)"/></g></g></g><g><path stroke="black" stroke-dasharray="none" d="M 532 535 532 495" fill="none"/><path fill="black" stroke="black" d="" transform="translate(532,535) scale(1,1) rotate(-90)"/><path fill="black" stroke="black" d="" transform="translate(532,495) scale(1,1) rotate(-270)"/><g><g label-idx="0" cursor="move" transform="translate(532, 515)"><rect fill="white" rx="3" ry="3" x="0" y="0" width="0" height="0"/><text text-anchor="middle" font-size="14pt" font-family="OpenSansCondensedLight" y="0.8em" display="none" xml:space="preserve" transform="translate(0,0)"/></g></g></g><g><path stroke="black" stroke-dasharray="none" d="M 532 535 532 495" fill="none"/><path fill="black" stroke="black" d="" transform="translate(532,535) scale(1,1) rotate(-90)"/><path fill="black" stroke="black" d="" transform="translate(532,495) scale(1,1) rotate(-270)"/><g><g label-idx="0" cursor="move" transform="translate(532, 515)"><rect fill="white" rx="3" ry="3" x="0" y="0" width="0" height="0"/><text text-anchor="middle" font-size="14pt" font-family="OpenSansCondensedLight" y="0.8em" display="none" xml:space="preserve" transform="translate(0,0)"/></g></g></g><g transform="translate(495,300)"><g><g>
<path d="M7.5,0C3.3,0,0,3.4,0,7.5s3.3,7.5,7.5,7.5s7.5,-3.4,7.5,-7.5S11.7,0,7.5,0L7.5,0z" stroke="#000000" stroke-dasharray="none" fill="#FFFFFF"/>
<rect x="1.5" y="3.8" width="12.1" height="7.4" fill="none"/>
<circle fill="none" cx="7.5" cy="0" r="0.1"/>
<circle fill="none" cx="11.1" cy="0.9" r="0.1"/>
<circle fill="none" cx="14" cy="3.8" r="0.1"/>
<circle fill="none" cx="15" cy="7.5" r="0.1"/>
<circle fill="none" cx="14" cy="11.2" r="0.1"/>
<circle fill="none" cx="11.2" cy="14" r="0.1"/>
<circle fill="none" cx="7.5" cy="15" r="0.1"/>
<circle fill="none" cx="3.8" cy="14" r="0.1"/>
<circle fill="none" cx="1" cy="11.2" r="0.1"/>
<circle fill="none" cx="0" cy="7.4" r="0.1"/>
<circle fill="none" cx="1" cy="3.8" r="0.1"/>
<circle fill="none" cx="3.9" cy="0.9" r="0.1"/>
</g></g><rect stroke="none" stroke-width="1" fill="#FFFFFF" x="0" y="0" width="40" height="20" transform="translate(54.9,-2.6)"/><path stroke="#000000" fill="none" d="M15,7.5 C32,24.4 37.9,-9.5 54.9 7.4"/><text font-family="OpenSansCondensedLight" font-size="14pt" fill="black" transform="translate(54.9,-2.6)" text-anchor="middle"><tspan x="20" y="16.3">104</tspan></text><rect stroke-width="0" fill="none" width="12.1" height="7.4" transform="translate(1.5,3.8)"/><text font-family="OpenSansCondensedLight" font-size="14pt" fill="black" transform="translate(1.5,3.8)" text-anchor="middle"><tspan x="6" y="10"> </tspan></text><path stroke="#000000" fill="none" transform="translate(1.5,3.8)" d="M 0 0"/></g><g transform="translate(547.5,250)"><g><g>
<path d="M7.5,0C3.3,0,0,3.4,0,7.5s3.3,7.5,7.5,7.5s7.5,-3.4,7.5,-7.5S11.7,0,7.5,0L7.5,0z" stroke="#000000" stroke-dasharray="none" fill="#FFFFFF"/>
<rect x="1.5" y="3.8" width="12.1" height="7.4" fill="none"/>
<circle fill="none" cx="7.5" cy="0" r="0.1"/>
<circle fill="none" cx="11.1" cy="0.9" r="0.1"/>
<circle fill="none" cx="14" cy="3.8" r="0.1"/>
<circle fill="none" cx="15" cy="7.5" r="0.1"/>
<circle fill="none" cx="14" cy="11.2" r="0.1"/>
<circle fill="none" cx="11.2" cy="14" r="0.1"/>
<circle fill="none" cx="7.5" cy="15" r="0.1"/>
<circle fill="none" cx="3.8" cy="14" r="0.1"/>
<circle fill="none" cx="1" cy="11.2" r="0.1"/>
<circle fill="none" cx="0" cy="7.4" r="0.1"/>
<circle fill="none" cx="1" cy="3.8" r="0.1"/>
<circle fill="none" cx="3.9" cy="0.9" r="0.1"/>
</g></g><rect stroke="none" stroke-width="1" fill="#FFFFFF" x="0" y="0" width="40" height="20" transform="translate(54.9,-2.6)"/><path stroke="#000000" fill="none" d="M15,7.5 C32,24.4 37.9,-9.5 54.9 7.4"/><text font-family="OpenSansCondensedLight" font-size="14pt" fill="black" transform="translate(54.9,-2.6)" text-anchor="middle"><tspan x="20" y="16.3">104</tspan></text><rect stroke-width="0" fill="none" width="12.1" height="7.4" transform="translate(1.5,3.8)"/><text font-family="OpenSansCondensedLight" font-size="14pt" fill="black" transform="translate(1.5,3.8)" text-anchor="middle"><tspan x="6" y="10"> </tspan></text><path stroke="#000000" fill="none" transform="translate(1.5,3.8)" d="M 0 0"/></g><g transform="translate(495,379.1)"><g><g>
<path d="M7.5,0C3.3,0,0,3.4,0,7.5s3.3,7.5,7.5,7.5s7.5,-3.4,7.5,-7.5S11.7,0,7.5,0L7.5,0z" stroke="#000000" stroke-dasharray="none" fill="#FFFFFF"/>
<rect x="1.5" y="3.8" width="12.1" height="7.4" fill="none"/>
<circle fill="none" cx="7.5" cy="0" r="0.1"/>
<circle fill="none" cx="11.1" cy="0.9" r="0.1"/>
<circle fill="none" cx="14" cy="3.8" r="0.1"/>
<circle fill="none" cx="15" cy="7.5" r="0.1"/>
<circle fill="none" cx="14" cy="11.2" r="0.1"/>
<circle fill="none" cx="11.2" cy="14" r="0.1"/>
<circle fill="none" cx="7.5" cy="15" r="0.1"/>
<circle fill="none" cx="3.8" cy="14" r="0.1"/>
<circle fill="none" cx="1" cy="11.2" r="0.1"/>
<circle fill="none" cx="0" cy="7.4" r="0.1"/>
<circle fill="none" cx="1" cy="3.8" r="0.1"/>
<circle fill="none" cx="3.9" cy="0.9" r="0.1"/>
</g></g><rect stroke="none" stroke-width="1" fill="#FFFFFF" x="0" y="0" width="40" height="20" transform="translate(54.9,-2.6)"/><path stroke="#000000" fill="none" d="M15,7.5 C32,24.4 37.9,-9.5 54.9 7.4"/><text font-family="OpenSansCondensedLight" font-size="14pt" fill="black" transform="translate(54.9,-2.6)" text-anchor="middle"><tspan x="20" y="16.3">104</tspan></text><rect stroke-width="0" fill="none" width="12.1" height="7.4" transform="translate(1.5,3.8)"/><text font-family="OpenSansCondensedLight" font-size="14pt" fill="black" transform="translate(1.5,3.8)" text-anchor="middle"><tspan x="6" y="10"> </tspan></text><path stroke="#000000" fill="none" transform="translate(1.5,3.8)" d="M 0 0"/></g><g transform="translate(577.5,300)"><g><g>
<path d="M7.5,0C3.3,0,0,3.4,0,7.5s3.3,7.5,7.5,7.5s7.5,-3.4,7.5,-7.5S11.7,0,7.5,0L7.5,0z" stroke="#000000" stroke-dasharray="none" fill="#FFFFFF"/>
<rect x="1.5" y="3.8" width="12.1" height="7.4" fill="none"/>
<circle fill="none" cx="7.5" cy="0" r="0.1"/>
<circle fill="none" cx="11.1" cy="0.9" r="0.1"/>
<circle fill="none" cx="14" cy="3.8" r="0.1"/>
<circle fill="none" cx="15" cy="7.5" r="0.1"/>
<circle fill="none" cx="14" cy="11.2" r="0.1"/>
<circle fill="none" cx="11.2" cy="14" r="0.1"/>
<circle fill="none" cx="7.5" cy="15" r="0.1"/>
<circle fill="none" cx="3.8" cy="14" r="0.1"/>
<circle fill="none" cx="1" cy="11.2" r="0.1"/>
<circle fill="none" cx="0" cy="7.4" r="0.1"/>
<circle fill="none" cx="1" cy="3.8" r="0.1"/>
<circle fill="none" cx="3.9" cy="0.9" r="0.1"/>
</g></g><rect stroke="none" stroke-width="1" fill="#FFFFFF" x="0" y="0" width="40" height="20" transform="translate(54.9,-2.6)"/><path stroke="#000000" fill="none" d="M15,7.5 C32,24.4 37.9,-9.5 54.9 7.4"/><text font-family="OpenSansCondensedLight" font-size="14pt" fill="black" transform="translate(54.9,-2.6)" text-anchor="middle"><tspan x="20" y="16.3">104</tspan></text><rect stroke-width="0" fill="none" width="12.1" height="7.4" transform="translate(1.5,3.8)"/><text font-family="OpenSansCondensedLight" font-size="14pt" fill="black" transform="translate(1.5,3.8)" text-anchor="middle"><tspan x="6" y="10"> </tspan></text><path stroke="#000000" fill="none" transform="translate(1.5,3.8)" d="M 0 0"/></g><g transform="translate(630,250)"><g><g>
<path d="M7.5,0C3.3,0,0,3.4,0,7.5s3.3,7.5,7.5,7.5s7.5,-3.4,7.5,-7.5S11.7,0,7.5,0L7.5,0z" stroke="#000000" stroke-dasharray="none" fill="#FFFFFF"/>
<rect x="1.5" y="3.8" width="12.1" height="7.4" fill="none"/>
<circle fill="none" cx="7.5" cy="0" r="0.1"/>
<circle fill="none" cx="11.1" cy="0.9" r="0.1"/>
<circle fill="none" cx="14" cy="3.8" r="0.1"/>
<circle fill="none" cx="15" cy="7.5" r="0.1"/>
<circle fill="none" cx="14" cy="11.2" r="0.1"/>
<circle fill="none" cx="11.2" cy="14" r="0.1"/>
<circle fill="none" cx="7.5" cy="15" r="0.1"/>
<circle fill="none" cx="3.8" cy="14" r="0.1"/>
<circle fill="none" cx="1" cy="11.2" r="0.1"/>
<circle fill="none" cx="0" cy="7.4" r="0.1"/>
<circle fill="none" cx="1" cy="3.8" r="0.1"/>
<circle fill="none" cx="3.9" cy="0.9" r="0.1"/>
</g></g><rect stroke="none" stroke-width="1" fill="#FFFFFF" x="0" y="0" width="40" height="20" transform="translate(54.9,-2.6)"/><path stroke="#000000" fill="none" d="M15,7.5 C32,24.4 37.9,-9.5 54.9 7.4"/><text font-family="OpenSansCondensedLight" font-size="14pt" fill="black" transform="translate(54.9,-2.6)" text-anchor="middle"><tspan x="20" y="16.3">104</tspan></text><rect stroke-width="0" fill="none" width="12.1" height="7.4" transform="translate(1.5,3.8)"/><text font-family="OpenSansCondensedLight" font-size="14pt" fill="black" transform="translate(1.5,3.8)" text-anchor="middle"><tspan x="6" y="10"> </tspan></text><path stroke="#000000" fill="none" transform="translate(1.5,3.8)" d="M 0 0"/></g><g transform="translate(547.5,335)"><g><g>
<path d="M7.5,0C3.3,0,0,3.4,0,7.5s3.3,7.5,7.5,7.5s7.5,-3.4,7.5,-7.5S11.7,0,7.5,0L7.5,0z" stroke="#000000" stroke-dasharray="none" fill="#FFFFFF"/>
<rect x="1.5" y="3.8" width="12.1" height="7.4" fill="none"/>
<circle fill="none" cx="7.5" cy="0" r="0.1"/>
<circle fill="none" cx="11.1" cy="0.9" r="0.1"/>
<circle fill="none" cx="14" cy="3.8" r="0.1"/>
<circle fill="none" cx="15" cy="7.5" r="0.1"/>
<circle fill="none" cx="14" cy="11.2" r="0.1"/>
<circle fill="none" cx="11.2" cy="14" r="0.1"/>
<circle fill="none" cx="7.5" cy="15" r="0.1"/>
<circle fill="none" cx="3.8" cy="14" r="0.1"/>
<circle fill="none" cx="1" cy="11.2" r="0.1"/>
<circle fill="none" cx="0" cy="7.4" r="0.1"/>
<circle fill="none" cx="1" cy="3.8" r="0.1"/>
<circle fill="none" cx="3.9" cy="0.9" r="0.1"/>
</g></g><rect stroke="none" stroke-width="1" fill="#FFFFFF" x="0" y="0" width="40" height="20" transform="translate(54.9,-2.6)"/><path stroke="#000000" fill="none" d="M15,7.5 C32,24.4 37.9,-9.5 54.9 7.4"/><text font-family="OpenSansCondensedLight" font-size="14pt" fill="black" transform="translate(54.9,-2.6)" text-anchor="middle"><tspan x="20" y="16.3">104</tspan></text><rect stroke-width="0" fill="none" width="12.1" height="7.4" transform="translate(1.5,3.8)"/><text font-family="OpenSansCondensedLight" font-size="14pt" fill="black" transform="translate(1.5,3.8)" text-anchor="middle"><tspan x="6" y="10"> </tspan></text><path stroke="#000000" fill="none" transform="translate(1.5,3.8)" d="M 0 0"/></g><g transform="translate(577.5,379.1)"><g><g>
<path d="M7.5,0C3.3,0,0,3.4,0,7.5s3.3,7.5,7.5,7.5s7.5,-3.4,7.5,-7.5S11.7,0,7.5,0L7.5,0z" stroke="#000000" stroke-dasharray="none" fill="#FFFFFF"/>
<rect x="1.5" y="3.8" width="12.1" height="7.4" fill="none"/>
<circle fill="none" cx="7.5" cy="0" r="0.1"/>
<circle fill="none" cx="11.1" cy="0.9" r="0.1"/>
<circle fill="none" cx="14" cy="3.8" r="0.1"/>
<circle fill="none" cx="15" cy="7.5" r="0.1"/>
<circle fill="none" cx="14" cy="11.2" r="0.1"/>
<circle fill="none" cx="11.2" cy="14" r="0.1"/>
<circle fill="none" cx="7.5" cy="15" r="0.1"/>
<circle fill="none" cx="3.8" cy="14" r="0.1"/>
<circle fill="none" cx="1" cy="11.2" r="0.1"/>
<circle fill="none" cx="0" cy="7.4" r="0.1"/>
<circle fill="none" cx="1" cy="3.8" r="0.1"/>
<circle fill="none" cx="3.9" cy="0.9" r="0.1"/>
</g></g><rect stroke="none" stroke-width="1" fill="#FFFFFF" x="0" y="0" width="40" height="20" transform="translate(54.9,-2.6)"/><path stroke="#000000" fill="none" d="M15,7.5 C32,24.4 37.9,-9.5 54.9 7.4"/><text font-family="OpenSansCondensedLight" font-size="14pt" fill="black" transform="translate(54.9,-2.6)" text-anchor="middle"><tspan x="20" y="16.3">104</tspan></text><rect stroke-width="0" fill="none" width="12.1" height="7.4" transform="translate(1.5,3.8)"/><text font-family="OpenSansCondensedLight" font-size="14pt" fill="black" transform="translate(1.5,3.8)" text-anchor="middle"><tspan x="6" y="10"> </tspan></text><path stroke="#000000" fill="none" transform="translate(1.5,3.8)" d="M 0 0"/></g><g transform="translate(630,335)"><g><g>
<path d="M7.5,0C3.3,0,0,3.4,0,7.5s3.3,7.5,7.5,7.5s7.5,-3.4,7.5,-7.5S11.7,0,7.5,0L7.5,0z" stroke="#000000" stroke-dasharray="none" fill="#FFFFFF"/>
<rect x="1.5" y="3.8" width="12.1" height="7.4" fill="none"/>
<circle fill="none" cx="7.5" cy="0" r="0.1"/>
<circle fill="none" cx="11.1" cy="0.9" r="0.1"/>
<circle fill="none" cx="14" cy="3.8" r="0.1"/>
<circle fill="none" cx="15" cy="7.5" r="0.1"/>
<circle fill="none" cx="14" cy="11.2" r="0.1"/>
<circle fill="none" cx="11.2" cy="14" r="0.1"/>
<circle fill="none" cx="7.5" cy="15" r="0.1"/>
<circle fill="none" cx="3.8" cy="14" r="0.1"/>
<circle fill="none" cx="1" cy="11.2" r="0.1"/>
<circle fill="none" cx="0" cy="7.4" r="0.1"/>
<circle fill="none" cx="1" cy="3.8" r="0.1"/>
<circle fill="none" cx="3.9" cy="0.9" r="0.1"/>
</g></g><rect stroke="none" stroke-width="1" fill="#FFFFFF" x="0" y="0" width="40" height="20" transform="translate(54.9,-2.6)"/><path stroke="#000000" fill="none" d="M15,7.5 C32,24.4 37.9,-9.5 54.9 7.4"/><text font-family="OpenSansCondensedLight" font-size="14pt" fill="black" transform="translate(54.9,-2.6)" text-anchor="middle"><tspan x="20" y="16.3">104</tspan></text><rect stroke-width="0" fill="none" width="12.1" height="7.4" transform="translate(1.5,3.8)"/><text font-family="OpenSansCondensedLight" font-size="14pt" fill="black" transform="translate(1.5,3.8)" text-anchor="middle"><tspan x="6" y="10"> </tspan></text><path stroke="#000000" fill="none" transform="translate(1.5,3.8)" d="M 0 0"/></g><g><path stroke="black" stroke-dasharray="none" d="M 589 301 631 261" fill="none"/><path fill="black" stroke="black" d="" transform="translate(589,301) scale(1,1) rotate(-43.6)"/><path fill="black" stroke="black" d="" transform="translate(631,261) scale(1,1) rotate(-223.6)"/><g><g label-idx="0" cursor="move" transform="translate(610, 281)"><rect fill="white" rx="3" ry="3" x="0" y="0" width="0" height="0"/><text text-anchor="middle" font-size="14pt" font-family="OpenSansCondensedLight" y="0.8em" display="none" xml:space="preserve" transform="translate(0,0)"/></g></g></g><g><path stroke="black" stroke-dasharray="none" d="M 506 301 548 261" fill="none"/><path fill="black" stroke="black" d="" transform="translate(506,301) scale(1,1) rotate(-43.6)"/><path fill="black" stroke="black" d="" transform="translate(548,261) scale(1,1) rotate(-223.6)"/><g><g label-idx="0" cursor="move" transform="translate(527, 281)"><rect fill="white" rx="3" ry="3" x="-23.3" y="-13.1" width="46.6" height="22"/><text text-anchor="start" font-size="14pt" font-family="OpenSansCondensedLight" y="0.8em" display="null" xml:space="preserve" transform="translate(0,-11)"><tspan x="-14" y="0.8em" text-decoration="underline">108</tspan></text></g></g></g><g><path stroke="black" stroke-dasharray="none" d="M 502 379 502 315" fill="none"/><path fill="black" stroke="black" d="" transform="translate(502,379) scale(1,1) rotate(-90)"/><path fill="black" stroke="black" d="" transform="translate(502,315) scale(1,1) rotate(-270)"/><g><g label-idx="0" cursor="move" transform="translate(502, 347)"><rect fill="white" rx="3" ry="3" x="0" y="0" width="0" height="0"/><text text-anchor="middle" font-size="14pt" font-family="OpenSansCondensedLight" y="0.8em" display="none" xml:space="preserve" transform="translate(0,0)"/></g></g></g><g><path stroke="black" stroke-dasharray="none" d="M 510 387 578 387" fill="none"/><path fill="black" stroke="black" d="" transform="translate(510,387) scale(1,1) rotate(0)"/><path fill="black" stroke="black" d="" transform="translate(578,387) scale(1,1) rotate(-180)"/><g><g label-idx="0" cursor="move" transform="translate(544, 387)"><rect fill="white" rx="3" ry="3" x="0" y="0" width="0" height="0"/><text text-anchor="middle" font-size="14pt" font-family="OpenSansCondensedLight" y="0.8em" display="none" xml:space="preserve" transform="translate(0,0)"/></g></g></g><g><path stroke="black" stroke-dasharray="none" d="M 585 315 585 379" fill="none"/><path fill="black" stroke="black" d="" transform="translate(585,315) scale(1,1) rotate(-270)"/><path fill="black" stroke="black" d="" transform="translate(585,379) scale(1,1) rotate(-90)"/><g><g label-idx="0" cursor="move" transform="translate(585, 347)"><rect fill="white" rx="3" ry="3" x="0" y="0" width="0" height="0"/><text text-anchor="middle" font-size="14pt" font-family="OpenSansCondensedLight" y="0.8em" display="none" xml:space="preserve" transform="translate(0,0)"/></g></g></g><g><path stroke="black" stroke-dasharray="none" d="M 578 307 510 307" fill="none"/><path fill="black" stroke="black" d="" transform="translate(578,307) scale(1,1) rotate(-180)"/><path fill="black" stroke="black" d="" transform="translate(510,307) scale(1,1) rotate(0)"/><g><g label-idx="0" cursor="move" transform="translate(544, 307)"><rect fill="white" rx="3" ry="3" x="0" y="0" width="0" height="0"/><text text-anchor="middle" font-size="14pt" font-family="OpenSansCondensedLight" y="0.8em" display="none" xml:space="preserve" transform="translate(0,0)"/></g></g></g><g><path stroke="black" stroke-dasharray="none" d="M 589 380 631 346" fill="none"/><path fill="black" stroke="black" d="" transform="translate(589,380) scale(1,1) rotate(-39)"/><path fill="black" stroke="black" d="" transform="translate(631,346) scale(1,1) rotate(-219)"/><g><g label-idx="0" cursor="move" transform="translate(610, 363)"><rect fill="white" rx="3" ry="3" x="0" y="0" width="0" height="0"/><text text-anchor="middle" font-size="14pt" font-family="OpenSansCondensedLight" y="0.8em" display="none" xml:space="preserve" transform="translate(0,0)"/></g></g></g><g><path stroke="black" stroke-dasharray="none" d="M 637 335 637 265" fill="none"/><path fill="black" stroke="black" d="" transform="translate(637,335) scale(1,1) rotate(-90)"/><path fill="black" stroke="black" d="" transform="translate(637,265) scale(1,1) rotate(-270)"/><g><g label-idx="0" cursor="move" transform="translate(637, 300)"><rect fill="white" rx="3" ry="3" x="0" y="0" width="0" height="0"/><text text-anchor="middle" font-size="14pt" font-family="OpenSansCondensedLight" y="0.8em" display="none" xml:space="preserve" transform="translate(0,0)"/></g></g></g><g><path stroke="black" stroke-dasharray="none" d="M 562 257 630 257" fill="none"/><path fill="black" stroke="black" d="" transform="translate(562,257) scale(1,1) rotate(0)"/><path fill="black" stroke="black" d="" transform="translate(630,257) scale(1,1) rotate(-180)"/><g><g label-idx="0" cursor="move" transform="translate(596, 257)"><rect fill="white" rx="3" ry="3" x="0" y="0" width="0" height="0"/><text text-anchor="middle" font-size="14pt" font-family="OpenSansCondensedLight" y="0.8em" display="none" xml:space="preserve" transform="translate(0,0)"/></g></g></g><g><path stroke="black" stroke-dasharray="none" d="M 506 380 548 346" fill="none"/><path fill="black" stroke="black" d="" transform="translate(506,380) scale(1,1) rotate(-39)"/><path fill="black" stroke="black" d="" transform="translate(548,346) scale(1,1) rotate(-219)"/><g><g label-idx="0" cursor="move" transform="translate(527, 363)"><rect fill="white" rx="3" ry="3" x="0" y="0" width="0" height="0"/><text text-anchor="middle" font-size="14pt" font-family="OpenSansCondensedLight" y="0.8em" display="none" xml:space="preserve" transform="translate(0,0)"/></g></g></g><g><path stroke="black" stroke-dasharray="none" d="M 562 342 630 342" fill="none"/><path fill="black" stroke="black" d="" transform="translate(562,342) scale(1,1) rotate(0)"/><path fill="black" stroke="black" d="" transform="translate(630,342) scale(1,1) rotate(-180)"/><g><g label-idx="0" cursor="move" transform="translate(596, 342)"><rect fill="white" rx="3" ry="3" x="0" y="0" width="0" height="0"/><text text-anchor="middle" font-size="14pt" font-family="OpenSansCondensedLight" y="0.8em" display="none" xml:space="preserve" transform="translate(0,0)"/></g></g></g><g><path stroke="black" stroke-dasharray="none" d="M 555 335 555 265" fill="none"/><path fill="black" stroke="black" d="" transform="translate(555,335) scale(1,1) rotate(-90)"/><path fill="black" stroke="black" d="" transform="translate(555,265) scale(1,1) rotate(-270)"/><g><g label-idx="0" cursor="move" transform="translate(555, 300)"><rect fill="white" rx="3" ry="3" x="0" y="0" width="0" height="0"/><text text-anchor="middle" font-size="14pt" font-family="OpenSansCondensedLight" y="0.8em" display="none" xml:space="preserve" transform="translate(0,0)"/></g></g></g><g transform="translate(427.3,346.5)"><g><g>
<rect y="0" fill="#FFFFFF" width="30.2" height="30.2" stroke="none" stroke-dasharray="none"/>
<rect x="2.1" y="2.3" fill="none" width="26" height="25.7"/>
<circle fill="none" cx="15.1" cy="0" r="0.1"/>
<circle fill="none" cx="23.5" cy="0" r="0.1"/>
<circle fill="none" cx="30.2" cy="7.3" r="0.1"/>
<circle fill="none" cx="30.2" cy="14.7" r="0.1"/>
<circle fill="none" cx="30.2" cy="23" r="0.1"/>
<circle fill="none" cx="23.5" cy="30.2" r="0.1"/>
<circle fill="none" cx="15.1" cy="30.2" r="0.1"/>
<circle fill="none" cx="7.6" cy="30.2" r="0.1"/>
<circle fill="none" cx="0" cy="23" r="0.1"/>
<circle fill="none" cx="0" cy="14.7" r="0.1"/>
<circle fill="none" cx="0" cy="7.3" r="0.1"/>
<circle fill="none" cx="7.7" cy="0" r="0.1"/>
</g></g><rect stroke="none" stroke-width="1" fill="none" x="0" y="0" width="40" height="20" transform="translate(70.1,4.6)"/><path stroke="#000000" fill="none" d="M30.2,14.7 C47.2,31.6 53.2,-2.3 70.1 14.6"/><text font-family="OpenSansCondensedLight" font-size="14pt" fill="black" transform="translate(70.1,4.6)"/><rect stroke-width="0" fill="none" width="26" height="25.7" transform="translate(2.1,2.3)"/><text font-family="OpenSansCondensedLight" font-size="14pt" fill="black" text-decoration="none" transform="translate(2.1,2.3)" text-anchor="middle"><tspan x="13" y="19.2">106</tspan></text><path stroke="#000000" fill="none" transform="translate(2.1,2.3)"/></g><g transform="translate(476,224.3)"><g><g>
<rect y="0" fill="#FFFFFF" width="30.2" height="30.2" stroke="none" stroke-dasharray="none"/>
<rect x="2.1" y="2.3" fill="none" width="26" height="25.7"/>
<circle fill="none" cx="15.1" cy="0" r="0.1"/>
<circle fill="none" cx="23.5" cy="0" r="0.1"/>
<circle fill="none" cx="30.2" cy="7.3" r="0.1"/>
<circle fill="none" cx="30.2" cy="14.7" r="0.1"/>
<circle fill="none" cx="30.2" cy="23" r="0.1"/>
<circle fill="none" cx="23.5" cy="30.2" r="0.1"/>
<circle fill="none" cx="15.1" cy="30.2" r="0.1"/>
<circle fill="none" cx="7.6" cy="30.2" r="0.1"/>
<circle fill="none" cx="0" cy="23" r="0.1"/>
<circle fill="none" cx="0" cy="14.7" r="0.1"/>
<circle fill="none" cx="0" cy="7.3" r="0.1"/>
<circle fill="none" cx="7.7" cy="0" r="0.1"/>
</g></g><rect stroke="none" stroke-width="1" fill="none" x="0" y="0" width="40" height="20" transform="translate(70.1,4.6)"/><path stroke="#000000" fill="none" d="M30.2,14.7 C47.2,31.6 53.2,-2.3 70.1 14.6"/><text font-family="OpenSansCondensedLight" font-size="14pt" fill="black" transform="translate(70.1,4.6)"/><rect stroke-width="0" fill="none" width="26" height="25.7" transform="translate(2.1,2.3)"/><text font-family="OpenSansCondensedLight" font-size="14pt" fill="black" text-decoration="none" transform="translate(2.1,2.3)" text-anchor="middle"><tspan x="13" y="19.2">106</tspan></text><path stroke="#000000" fill="none" transform="translate(2.1,2.3)"/></g><g transform="translate(547.5,187.4)"><g><g>
<rect y="0" fill="#FFFFFF" width="30.2" height="30.2" stroke="none" stroke-dasharray="none"/>
<rect x="2.1" y="2.3" fill="none" width="26" height="25.7"/>
<circle fill="none" cx="15.1" cy="0" r="0.1"/>
<circle fill="none" cx="23.5" cy="0" r="0.1"/>
<circle fill="none" cx="30.2" cy="7.3" r="0.1"/>
<circle fill="none" cx="30.2" cy="14.7" r="0.1"/>
<circle fill="none" cx="30.2" cy="23" r="0.1"/>
<circle fill="none" cx="23.5" cy="30.2" r="0.1"/>
<circle fill="none" cx="15.1" cy="30.2" r="0.1"/>
<circle fill="none" cx="7.6" cy="30.2" r="0.1"/>
<circle fill="none" cx="0" cy="23" r="0.1"/>
<circle fill="none" cx="0" cy="14.7" r="0.1"/>
<circle fill="none" cx="0" cy="7.3" r="0.1"/>
<circle fill="none" cx="7.7" cy="0" r="0.1"/>
</g></g><rect stroke="none" stroke-width="1" fill="none" x="0" y="0" width="40" height="20" transform="translate(70.1,4.6)"/><path stroke="#000000" fill="none" d="M30.2,14.7 C47.2,31.6 53.2,-2.3 70.1 14.6"/><text font-family="OpenSansCondensedLight" font-size="14pt" fill="black" transform="translate(70.1,4.6)"/><rect stroke-width="0" fill="none" width="26" height="25.7" transform="translate(2.1,2.3)"/><text font-family="OpenSansCondensedLight" font-size="14pt" fill="black" text-decoration="none" transform="translate(2.1,2.3)" text-anchor="middle"><tspan x="13" y="19.2">106</tspan></text><path stroke="#000000" fill="none" transform="translate(2.1,2.3)"/></g><g transform="translate(460.3,243.8)"><g><g>
<rect y="0" fill="#FFFFFF" width="30.2" height="30.2" stroke="none" stroke-dasharray="none"/>
<rect x="2.1" y="2.3" fill="none" width="26" height="25.7"/>
<circle fill="none" cx="15.1" cy="0" r="0.1"/>
<circle fill="none" cx="23.5" cy="0" r="0.1"/>
<circle fill="none" cx="30.2" cy="7.3" r="0.1"/>
<circle fill="none" cx="30.2" cy="14.7" r="0.1"/>
<circle fill="none" cx="30.2" cy="23" r="0.1"/>
<circle fill="none" cx="23.5" cy="30.2" r="0.1"/>
<circle fill="none" cx="15.1" cy="30.2" r="0.1"/>
<circle fill="none" cx="7.6" cy="30.2" r="0.1"/>
<circle fill="none" cx="0" cy="23" r="0.1"/>
<circle fill="none" cx="0" cy="14.7" r="0.1"/>
<circle fill="none" cx="0" cy="7.3" r="0.1"/>
<circle fill="none" cx="7.7" cy="0" r="0.1"/>
</g></g><rect stroke="none" stroke-width="1" fill="none" x="0" y="0" width="40" height="20" transform="translate(70.1,4.6)"/><path stroke="#000000" fill="none" d="M30.2,14.7 C47.2,31.6 53.2,-2.3 70.1 14.6"/><text font-family="OpenSansCondensedLight" font-size="14pt" fill="black" transform="translate(70.1,4.6)"/><rect stroke-width="0" fill="none" width="26" height="25.7" transform="translate(2.1,2.3)"/><text font-family="OpenSansCondensedLight" font-size="14pt" fill="black" text-decoration="none" transform="translate(2.1,2.3)" text-anchor="middle"><tspan x="13" y="19.2">106</tspan></text><path stroke="#000000" fill="none" transform="translate(2.1,2.3)"/></g><g transform="translate(660.8,262.4)"><g><g>
<rect y="0" fill="#FFFFFF" width="30.2" height="30.2" stroke="none" stroke-dasharray="none"/>
<rect x="2.1" y="2.3" fill="none" width="26" height="25.7"/>
<circle fill="none" cx="15.1" cy="0" r="0.1"/>
<circle fill="none" cx="23.5" cy="0" r="0.1"/>
<circle fill="none" cx="30.2" cy="7.3" r="0.1"/>
<circle fill="none" cx="30.2" cy="14.7" r="0.1"/>
<circle fill="none" cx="30.2" cy="23" r="0.1"/>
<circle fill="none" cx="23.5" cy="30.2" r="0.1"/>
<circle fill="none" cx="15.1" cy="30.2" r="0.1"/>
<circle fill="none" cx="7.6" cy="30.2" r="0.1"/>
<circle fill="none" cx="0" cy="23" r="0.1"/>
<circle fill="none" cx="0" cy="14.7" r="0.1"/>
<circle fill="none" cx="0" cy="7.3" r="0.1"/>
<circle fill="none" cx="7.7" cy="0" r="0.1"/>
</g></g><rect stroke="none" stroke-width="1" fill="none" x="0" y="0" width="40" height="20" transform="translate(70.1,4.6)"/><path stroke="#000000" fill="none" d="M30.2,14.7 C47.2,31.6 53.2,-2.3 70.1 14.6"/><text font-family="OpenSansCondensedLight" font-size="14pt" fill="black" transform="translate(70.1,4.6)"/><rect stroke-width="0" fill="none" width="26" height="25.7" transform="translate(2.1,2.3)"/><text font-family="OpenSansCondensedLight" font-size="14pt" fill="black" text-decoration="none" transform="translate(2.1,2.3)" text-anchor="middle"><tspan x="13" y="19.2">106</tspan></text><path stroke="#000000" fill="none" transform="translate(2.1,2.3)"/></g><g transform="translate(702.4,278.2)"><g><g>
<rect y="0" fill="#FFFFFF" width="30.2" height="30.2" stroke="none" stroke-dasharray="none"/>
<rect x="2.1" y="2.3" fill="none" width="26" height="25.7"/>
<circle fill="none" cx="15.1" cy="0" r="0.1"/>
<circle fill="none" cx="23.5" cy="0" r="0.1"/>
<circle fill="none" cx="30.2" cy="7.3" r="0.1"/>
<circle fill="none" cx="30.2" cy="14.7" r="0.1"/>
<circle fill="none" cx="30.2" cy="23" r="0.1"/>
<circle fill="none" cx="23.5" cy="30.2" r="0.1"/>
<circle fill="none" cx="15.1" cy="30.2" r="0.1"/>
<circle fill="none" cx="7.6" cy="30.2" r="0.1"/>
<circle fill="none" cx="0" cy="23" r="0.1"/>
<circle fill="none" cx="0" cy="14.7" r="0.1"/>
<circle fill="none" cx="0" cy="7.3" r="0.1"/>
<circle fill="none" cx="7.7" cy="0" r="0.1"/>
</g></g><rect stroke="none" stroke-width="1" fill="none" x="0" y="0" width="40" height="20" transform="translate(70.1,4.6)"/><path stroke="#000000" fill="none" d="M30.2,14.7 C47.2,31.6 53.2,-2.3 70.1 14.6"/><text font-family="OpenSansCondensedLight" font-size="14pt" fill="black" transform="translate(70.1,4.6)"/><rect stroke-width="0" fill="none" width="26" height="25.7" transform="translate(2.1,2.3)"/><text font-family="OpenSansCondensedLight" font-size="14pt" fill="black" text-decoration="none" transform="translate(2.1,2.3)" text-anchor="middle"><tspan x="13" y="19.2">106</tspan></text><path stroke="#000000" fill="none" transform="translate(2.1,2.3)"/></g><g transform="translate(649.9,379)"><g><g>
<rect y="0" fill="#FFFFFF" width="30.2" height="30.2" stroke="none" stroke-dasharray="none"/>
<rect x="2.1" y="2.3" fill="none" width="26" height="25.7"/>
<circle fill="none" cx="15.1" cy="0" r="0.1"/>
<circle fill="none" cx="23.5" cy="0" r="0.1"/>
<circle fill="none" cx="30.2" cy="7.3" r="0.1"/>
<circle fill="none" cx="30.2" cy="14.7" r="0.1"/>
<circle fill="none" cx="30.2" cy="23" r="0.1"/>
<circle fill="none" cx="23.5" cy="30.2" r="0.1"/>
<circle fill="none" cx="15.1" cy="30.2" r="0.1"/>
<circle fill="none" cx="7.6" cy="30.2" r="0.1"/>
<circle fill="none" cx="0" cy="23" r="0.1"/>
<circle fill="none" cx="0" cy="14.7" r="0.1"/>
<circle fill="none" cx="0" cy="7.3" r="0.1"/>
<circle fill="none" cx="7.7" cy="0" r="0.1"/>
</g></g><rect stroke="none" stroke-width="1" fill="none" x="0" y="0" width="40" height="20" transform="translate(70.1,4.6)"/><path stroke="#000000" fill="none" d="M30.2,14.7 C47.2,31.6 53.2,-2.3 70.1 14.6"/><text font-family="OpenSansCondensedLight" font-size="14pt" fill="black" transform="translate(70.1,4.6)"/><rect stroke-width="0" fill="none" width="26" height="25.7" transform="translate(2.1,2.3)"/><text font-family="OpenSansCondensedLight" font-size="14pt" fill="black" text-decoration="none" transform="translate(2.1,2.3)" text-anchor="middle"><tspan x="13" y="19.2">106</tspan></text><path stroke="#000000" fill="none" transform="translate(2.1,2.3)"/></g><g transform="translate(556.5,425.7)"><g><g>
<rect y="0" fill="#FFFFFF" width="30.2" height="30.2" stroke="none" stroke-dasharray="none"/>
<rect x="2.1" y="2.3" fill="none" width="26" height="25.7"/>
<circle fill="none" cx="15.1" cy="0" r="0.1"/>
<circle fill="none" cx="23.5" cy="0" r="0.1"/>
<circle fill="none" cx="30.2" cy="7.3" r="0.1"/>
<circle fill="none" cx="30.2" cy="14.7" r="0.1"/>
<circle fill="none" cx="30.2" cy="23" r="0.1"/>
<circle fill="none" cx="23.5" cy="30.2" r="0.1"/>
<circle fill="none" cx="15.1" cy="30.2" r="0.1"/>
<circle fill="none" cx="7.6" cy="30.2" r="0.1"/>
<circle fill="none" cx="0" cy="23" r="0.1"/>
<circle fill="none" cx="0" cy="14.7" r="0.1"/>
<circle fill="none" cx="0" cy="7.3" r="0.1"/>
<circle fill="none" cx="7.7" cy="0" r="0.1"/>
</g></g><rect stroke="none" stroke-width="1" fill="none" x="0" y="0" width="40" height="20" transform="translate(70.1,4.6)"/><path stroke="#000000" fill="none" d="M30.2,14.7 C47.2,31.6 53.2,-2.3 70.1 14.6"/><text font-family="OpenSansCondensedLight" font-size="14pt" fill="black" transform="translate(70.1,4.6)"/><rect stroke-width="0" fill="none" width="26" height="25.7" transform="translate(2.1,2.3)"/><text font-family="OpenSansCondensedLight" font-size="14pt" fill="black" text-decoration="none" transform="translate(2.1,2.3)" text-anchor="middle"><tspan x="13" y="19.2">106</tspan></text><path stroke="#000000" fill="none" transform="translate(2.1,2.3)"/></g><g transform="translate(570,254.8)"><g><g>
<rect y="0" fill="#FFFFFF" width="30.2" height="30.2" stroke="none" stroke-dasharray="none"/>
<rect x="2.1" y="2.3" fill="none" width="26" height="25.7"/>
<circle fill="none" cx="15.1" cy="0" r="0.1"/>
<circle fill="none" cx="23.5" cy="0" r="0.1"/>
<circle fill="none" cx="30.2" cy="7.3" r="0.1"/>
<circle fill="none" cx="30.2" cy="14.7" r="0.1"/>
<circle fill="none" cx="30.2" cy="23" r="0.1"/>
<circle fill="none" cx="23.5" cy="30.2" r="0.1"/>
<circle fill="none" cx="15.1" cy="30.2" r="0.1"/>
<circle fill="none" cx="7.6" cy="30.2" r="0.1"/>
<circle fill="none" cx="0" cy="23" r="0.1"/>
<circle fill="none" cx="0" cy="14.7" r="0.1"/>
<circle fill="none" cx="0" cy="7.3" r="0.1"/>
<circle fill="none" cx="7.7" cy="0" r="0.1"/>
</g></g><rect stroke="none" stroke-width="1" fill="none" x="0" y="0" width="40" height="20" transform="translate(70.1,4.6)"/><path stroke="#000000" fill="none" d="M30.2,14.7 C47.2,31.6 53.2,-2.3 70.1 14.6"/><text font-family="OpenSansCondensedLight" font-size="14pt" fill="black" transform="translate(70.1,4.6)"/><rect stroke-width="0" fill="none" width="26" height="25.7" transform="translate(2.1,2.3)"/><text font-family="OpenSansCondensedLight" font-size="14pt" fill="black" text-decoration="none" transform="translate(2.1,2.3)" text-anchor="middle"><tspan x="13" y="19.2">106</tspan></text><path stroke="#000000" fill="none" transform="translate(2.1,2.3)"/></g><g transform="translate(608.5,308.9)"><g><g>
<rect y="0" fill="#FFFFFF" width="30.2" height="30.2" stroke="none" stroke-dasharray="none"/>
<rect x="2.1" y="2.3" fill="none" width="26" height="25.7"/>
<circle fill="none" cx="15.1" cy="0" r="0.1"/>
<circle fill="none" cx="23.5" cy="0" r="0.1"/>
<circle fill="none" cx="30.2" cy="7.3" r="0.1"/>
<circle fill="none" cx="30.2" cy="14.7" r="0.1"/>
<circle fill="none" cx="30.2" cy="23" r="0.1"/>
<circle fill="none" cx="23.5" cy="30.2" r="0.1"/>
<circle fill="none" cx="15.1" cy="30.2" r="0.1"/>
<circle fill="none" cx="7.6" cy="30.2" r="0.1"/>
<circle fill="none" cx="0" cy="23" r="0.1"/>
<circle fill="none" cx="0" cy="14.7" r="0.1"/>
<circle fill="none" cx="0" cy="7.3" r="0.1"/>
<circle fill="none" cx="7.7" cy="0" r="0.1"/>
</g></g><rect stroke="none" stroke-width="1" fill="none" x="0" y="0" width="40" height="20" transform="translate(70.1,4.6)"/><path stroke="#000000" fill="none" d="M30.2,14.7 C47.2,31.6 53.2,-2.3 70.1 14.6"/><text font-family="OpenSansCondensedLight" font-size="14pt" fill="black" transform="translate(70.1,4.6)"/><rect stroke-width="0" fill="none" width="26" height="25.7" transform="translate(2.1,2.3)"/><text font-family="OpenSansCondensedLight" font-size="14pt" fill="black" text-decoration="none" transform="translate(2.1,2.3)" text-anchor="middle"><tspan x="13" y="19.2">106</tspan></text><path stroke="#000000" fill="none" transform="translate(2.1,2.3)"/></g><g transform="translate(526,15)"><g><g>
<path d="M165,0H0v30h165V0L165,0z" stroke="#000000" stroke-dasharray="none" fill="#FFFFFF"/>
<rect x="7.2" y="1.4" width="150.6" height="27.3" fill="none"/>
<circle fill="none" cx="82.5" cy="0" r="0.1"/>
<circle fill="none" cx="123.4" cy="0" r="0.1"/>
<circle fill="none" cx="165" cy="7.6" r="0.1"/>
<circle fill="none" cx="165" cy="15" r="0.1"/>
<circle fill="none" cx="165" cy="22.4" r="0.1"/>
<circle fill="none" cx="123.4" cy="30" r="0.1"/>
<circle fill="none" cx="82.5" cy="30" r="0.1"/>
<circle fill="none" cx="41.6" cy="30" r="0.1"/>
<circle fill="none" cx="0" cy="22.4" r="0.1"/>
<circle fill="none" cx="0" cy="15" r="0.1"/>
<circle fill="none" cx="0" cy="7.6" r="0.1"/>
<circle fill="none" cx="41.6" cy="0" r="0.1"/>
</g></g><rect stroke="none" stroke-width="1" fill="#FFFFFF" x="0" y="0" width="40" height="20" transform="translate(204.9,4.9)"/><path stroke="#000000" fill="none" d="M165,15 C182,31.9 187.9,-2 204.9 14.9"/><text font-family="OpenSansCondensedLight" font-size="14pt" fill="black" transform="translate(204.9,4.9)" text-anchor="middle"><tspan x="20" y="16.3">110</tspan></text><rect stroke-width="0" fill="none" width="150.6" height="27.3" transform="translate(7.2,1.4)"/><text font-family="OpenSansCondensedLight" font-size="14pt" fill="black" transform="translate(7.2,1.4)" text-anchor="middle"><tspan x="75.3" y="19.9">SENSOR</tspan></text><path stroke="#000000" fill="none" transform="translate(7.2,1.4)" d="M 0 0"/></g><g><path stroke="black" stroke-dasharray="none" d="M 649 45 637 112" fill="none"/><path fill="black" stroke="black" d="" transform="translate(649,45) scale(1,1) rotate(-260.2)"/><path fill="black" stroke="black" d="M 8 0 L 0 4 L 8 8 z" transform="translate(632.1,119.3) scale(1,1) rotate(-80.2)"/><g><g label-idx="0" cursor="move" transform="translate(643, 78.5)"><rect fill="white" rx="3" ry="3" x="0" y="0" width="0" height="0"/><text text-anchor="middle" font-size="14pt" font-family="OpenSansCondensedLight" y="0.8em" display="none" xml:space="preserve" transform="translate(0,0)"/></g></g></g><g transform="translate(495,595)"><g><g>
<path d="M165,0H0v30h165V0L165,0z" stroke="#000000" stroke-dasharray="none" fill="#FFFFFF"/>
<rect x="7.2" y="1.4" width="150.6" height="27.3" fill="none"/>
<circle fill="none" cx="82.5" cy="0" r="0.1"/>
<circle fill="none" cx="123.4" cy="0" r="0.1"/>
<circle fill="none" cx="165" cy="7.6" r="0.1"/>
<circle fill="none" cx="165" cy="15" r="0.1"/>
<circle fill="none" cx="165" cy="22.4" r="0.1"/>
<circle fill="none" cx="123.4" cy="30" r="0.1"/>
<circle fill="none" cx="82.5" cy="30" r="0.1"/>
<circle fill="none" cx="41.6" cy="30" r="0.1"/>
<circle fill="none" cx="0" cy="22.4" r="0.1"/>
<circle fill="none" cx="0" cy="15" r="0.1"/>
<circle fill="none" cx="0" cy="7.6" r="0.1"/>
<circle fill="none" cx="41.6" cy="0" r="0.1"/>
</g></g><rect stroke="none" stroke-width="1" fill="#FFFFFF" x="0" y="0" width="40" height="20" transform="translate(204.9,4.9)"/><path stroke="#000000" fill="none" d="M165,15 C182,31.9 187.9,-2 204.9 14.9"/><text font-family="OpenSansCondensedLight" font-size="14pt" fill="black" transform="translate(204.9,4.9)" text-anchor="middle"><tspan x="20" y="16.3">112</tspan></text><rect stroke-width="0" fill="none" width="150.6" height="27.3" transform="translate(7.2,1.4)"/><text font-family="OpenSansCondensedLight" font-size="14pt" fill="black" transform="translate(7.2,1.4)" text-anchor="middle"><tspan x="75.3" y="19.9">ACTOR</tspan></text><path stroke="#000000" fill="none" transform="translate(7.2,1.4)" d="M 0 0"/></g><g><path stroke="black" stroke-dasharray="none" d="M 784 150 847 194" fill="none"/><path fill="black" stroke="black" d="" transform="translate(784,150) scale(1,1) rotate(34.9)"/><path fill="black" stroke="black" d="" transform="translate(847,194) scale(1,1) rotate(-145.1)"/><g><g label-idx="0" cursor="move" transform="translate(815.5, 172)"><rect fill="white" rx="3" ry="3" x="0" y="0" width="0" height="0"/><text text-anchor="middle" font-size="14pt" font-family="OpenSansCondensedLight" y="0.8em" display="none" xml:space="preserve" transform="translate(0,0)"/></g></g></g><g><path stroke="black" stroke-dasharray="none" d="M 572 535 576 587" fill="none"/><path fill="black" stroke="black" d="" transform="translate(572,535) scale(1,1) rotate(85.2)"/><path fill="black" stroke="black" d="M 8 0 L 0 4 L 8 8 z" transform="translate(573,595.3) scale(1,1) rotate(-94.8)"/><g><g label-idx="0" cursor="move" transform="translate(574, 561)"><rect fill="white" rx="3" ry="3" x="0" y="0" width="0" height="0"/><text text-anchor="middle" font-size="14pt" font-family="OpenSansCondensedLight" y="0.8em" display="none" xml:space="preserve" transform="translate(0,0)"/></g></g></g><g transform="translate(180,69)"><g><g>
<g fill="#FFFFFF">
    <path d="M0,244.1c9.3,-0.7,17.2,-24.8,17.2,-65.3V63.1C17.2,22.7,24,0,32.9,0h12.1v494.5h-12.1c-8.9,0,-15.7,-22.7,-15.7,-63.9V309.4C17.2,269.6,9.5,244.8,0,244.1"/>
</g>
<g stroke="#000000" stroke-dasharray="none" fill="#FFFFFF">
    <path stroke-linejoin="round" d="M45,494.5h-12.1c-8.9,0,-15.7,-22.7,-15.7,-63.9V309.4C17.2,269.6,9.5,244.8,0,244.1"/>
    <path stroke-linejoin="round" d="M0,244.1c9.3,-0.7,17.2,-24.8,17.2,-65.3V63.1C17.2,22.7,24,0,32.9,0h12.1"/>
</g>
<rect x="3" y="10.6" fill="none" width="38.8" height="473.3"/>
<circle fill="none" cx="33.8" cy="0.4" r="0.1"/>
<circle fill="none" cx="45" cy="0.4" r="0.1"/>
<circle fill="none" cx="45" cy="495" r="0.1"/>
<circle fill="none" cx="33.8" cy="495" r="0.1"/>
<circle fill="none" cx="21" cy="475.4" r="0.1"/>
<circle fill="none" cx="17.2" cy="392.1" r="0.1"/>
<circle fill="none" cx="17" cy="299.2" r="0.1"/>
<circle fill="none" cx="8" cy="251.9" r="0.1"/>
<circle fill="none" cx="7.9" cy="237.4" r="0.1"/>
<circle fill="none" cx="17.3" cy="181.6" r="0.1"/>
<circle fill="none" cx="17.1" cy="73.9" r="0.1"/>
<circle fill="none" cx="20.6" cy="21.7" r="0.1"/>
</g></g><rect stroke="none" stroke-width="0" fill="#FFFFFF" x="0" y="0" width="0" height="0" transform="translate(44.9,0.3)"/><path stroke="#000000" fill="none" d=""/><text font-family="OpenSansCondensedLight" font-size="14pt" fill="black" transform="translate(44.9,0.3)"/><rect stroke-width="0" fill="none" width="38.8" height="473.3" transform="translate(3,10.6)"/><text font-family="OpenSansCondensedLight" font-size="14pt" fill="black" transform="translate(3,10.6)" text-anchor="middle"><tspan x="19.4" y="16.8"> </tspan></text><path stroke="#000000" fill="none" transform="translate(3,10.6)" d="M 0 0"/></g><g transform="translate(30,250.5)"><g><g>
<g stroke-width="0.5" stroke="#000000" stroke-dasharray="none" fill="#FFFFFF">
    <path d="M109.6,0c0.1,0,0.3,0.1,0.4,0.1c0.1,0,0.3,0.2,0.3,0.2c0.1,0.1,0.2,0.2,0.2,0.4c0.1,0.2,0.1,0.3,0.1,0.5l1.7,71.7c0,0.2,0,0.3,-0.1,0.5c-0.1,0.2,-0.1,0.3,-0.2,0.5c-0.1,0.2,-0.2,0.2,-0.3,0.2c-0.1,0.1,-0.3,0.1,-0.4,0.1H8.8c-0.1,0,-0.3,-0.1,-0.4,-0.1c-0.1,-0.1,-0.3,-0.2,-0.3,-0.2c-0.1,-0.2,-0.2,-0.2,-0.2,-0.5c-0.1,-0.2,-0.1,-0.4,-0.1,-0.5l1.6,-71.7c0,-0.2,0.1,-0.3,0.1,-0.5c0.1,-0.2,0.1,-0.2,0.2,-0.4c0.1,-0.1,0.2,-0.2,0.3,-0.2C10.1,0.1,10.3,0,10.4,0H109.6z"/>
    <path d="M111,74.6c0.1,0,0.3,0,0.4,0.1s0.3,0.1,0.4,0.2c0.1,0.1,0.2,0.1,0.3,0.2c0.1,0.1,0.1,0.2,0.1,0.2l7.8,35.2c-0.1,0.5,-0.9,0.7,-1.1,0.7H1.1c-0.2,0,-0.3,-0.1,-0.4,-0.1c-0.5,-0.1,-0.6,-0.6,-0.6,-0.6l7.6,-35.2c0,-0.1,0.1,-0.2,0.1,-0.2c0.1,-0.1,0.1,-0.2,0.3,-0.2c0.1,-0.1,0.2,-0.1,0.4,-0.2c0.1,-0.1,0.3,-0.1,0.4,-0.1L111,74.6L111,74.6z"/>
    <path d="M120,110.5c-0.1,0.9,-0.1,2,-0.2,2.9c-0,0.1,-0.3,0.5,-0.5,0.5c-0.1,0.1,-0.6,0.1,-0.7,0.1l0.2,-2.9C119.5,111.2,119.9,110.7,120,110.5z"/>
    <polygon points="118.8,111.2 118.6,114 1.2,114 1.1,111.2"/>
    <path d="M1.3,114c-0.1,0,-0.4,0,-0.6,-0.1c-0.2,-0.1,-0.5,-0.3,-0.5,-0.3c-0.1,-0.1,-0.1,-0.2,-0.1,-0.2l0,0c-0.1,-0.9,-0.2,-2,-0.2,-2.9c0,0.3,0.4,0.7,1.1,0.7"/>
    <path d="M114.2,94.3c0,0.5,-0.4,1.1,-0.9,1.1H7.4c-0.5,0,-0.9,-0.5,-0.9,-1.1l3.6,-16.7c0,-0.5,0.4,-1.1,0.9,-1.1h98.8c0.5,0,0.9,0.5,0.9,1.1L114.2,94.3z"/>
    <path d="M10.3,81.8c0.1,0.1,0.1,0.1,0.1,0.1c0.1,0,0.1,0,0.2,0h4.7c0.1,0,0.1,0,0.2,0s0.1,-0.1,0.1,-0.1s0.1,-0.1,0.1,-0.1c0.1,-0.1,0.1,-0.1,0.1,-0.1l0.4,-2.1c0,-0.1,0,-0.1,-0.1,-0.1c-0.1,-0.1,-0.1,-0.1,-0.1,-0.1c-0.1,0,-0.1,-0.1,-0.1,-0.1c-0.1,0,-0.1,0,-0.2,0H11.1c-0.1,0,-0.1,0,-0.2,0c-0.1,0,-0.1,0.1,-0.1,0.1c-0.1,0.1,-0.1,0.1,-0.1,0.1c-0.1,0.1,-0.1,0.1,-0.1,0.1l-0.4,2.1c0,0.1,0,0.1,0,0.1C10.2,81.7,10.2,81.7,10.3,81.8L10.3,81.8zM16.5,81.8c0.1,0.1,0.1,0.1,0.1,0.1c0.1,0,0.1,0,0.2,0h4.7c0.1,0,0.1,0,0.2,0s0.1,-0.1,0.1,-0.1c0.1,-0.1,0.1,-0.1,0.1,-0.1c0.1,-0.1,0.1,-0.1,0.1,-0.1l0.3,-2.1c0,-0.1,0,-0.1,-0.1,-0.1c-0.1,-0.1,-0.1,-0.1,-0.1,-0.1c-0.1,0,-0.1,-0.1,-0.1,-0.1s-0.1,0,-0.2,0H17.3c-0.1,0,-0.1,0,-0.2,0s-0.1,0.1,-0.1,0.1s-0.1,0.1,-0.1,0.1c-0.1,0.1,-0.1,0.1,-0.1,0.1l-0.4,2.1c0,0.1,0,0.1,0.1,0.1C16.5,81.7,16.5,81.7,16.5,81.8L16.5,81.8zM23.3,79.3c-0.1,0,-0.1,0.1,-0.1,0.1s-0.1,0.1,-0.1,0.1c-0.1,0.1,-0.1,0.1,-0.1,0.1l-0.3,2.1c0,0.1,0,0.1,0.1,0.1c0.1,0.1,0.1,0.1,0.1,0.1c0.1,0.1,0.1,0.1,0.1,0.1c0.1,0,0.1,0,0.2,0h4.7c0.1,0,0.1,0,0.2,0s0.1,-0.1,0.1,-0.1c0.1,-0.1,0.1,-0.1,0.1,-0.1c0.1,-0.1,0.1,-0.1,0.1,-0.1l0.3,-2.1c0,-0.1,0,-0.1,-0.1,-0.1c-0.1,-0.1,-0.1,-0.1,-0.1,-0.1c-0.1,0,-0.1,-0.1,-0.1,-0.1s-0.1,0,-0.2,0h-4.7C23.4,79.3,23.4,79.3,23.3,79.3L23.3,79.3zM29.2,81.8c0.1,0,0.1,0,0.2,0h4.7c0.1,0,0.1,0,0.2,0s0.1,-0.1,0.1,-0.1c0.1,-0.1,0.1,-0.1,0.1,-0.1c0.1,-0.1,0.1,-0.1,0.1,-0.1l0.2,-2.1c0,-0.1,0,-0.1,-0.1,-0.1c-0.1,-0.1,-0.1,-0.1,-0.1,-0.1c-0.1,0,-0.1,-0.1,-0.1,-0.1s-0.1,0,-0.2,0h-4.6c-0.1,0,-0.1,0,-0.2,0s-0.1,0.1,-0.1,0.1c-0.1,0.1,-0.1,0.1,-0.1,0.1c-0.1,0.1,-0.1,0.1,-0.1,0.1l-0.3,2.1c0,0.1,0,0.1,0.1,0.1c0.1,0.1,0.1,0.1,0.1,0.1C29.1,81.8,29.1,81.8,29.2,81.8L29.2,81.8zM40.9,79.3c-0.1,-0.1,-0.1,-0.1,-0.1,-0.1s-0.1,0,-0.2,0h-4.7c-0.1,0,-0.1,0,-0.2,0c-0.1,0,-0.1,0.1,-0.1,0.1c-0.1,0,-0.1,0.1,-0.1,0.1c-0.1,0.1,-0.1,0.1,-0.1,0.1l-0.1,2.1c0,0.1,0,0.1,0.1,0.1c0.1,0.1,0.1,0.1,0.1,0.1c0.1,0.1,0.1,0.1,0.1,0.1s0.1,0,0.2,0h4.7c0.1,0,0.1,0,0.2,0c0.1,0,0.1,-0.1,0.1,-0.1c0.1,-0.1,0.1,-0.1,0.1,-0.1c0.1,-0.1,0.1,-0.1,0.1,-0.1l0.1,-2.1c0,-0.1,0,-0.1,-0.1,-0.1C41,79.4,41,79.3,40.9,79.3L40.9,79.3zM47.2,79.3c-0.1,0,-0.1,-0.1,-0.1,-0.1s-0.1,0,-0.2,0h-4.7c-0.1,0,-0.1,0,-0.2,0c-0.1,0,-0.1,0.1,-0.1,0.1c-0.1,0,-0.1,0.1,-0.1,0.1c-0.1,0.1,-0.1,0.1,-0.1,0.1l-0.1,2.1c0,0.1,0,0.1,0.1,0.1c0.1,0.1,0.1,0.1,0.1,0.1c0.1,0.1,0.1,0.1,0.1,0.1s0.1,0,0.2,0h4.7c0.1,0,0.1,0,0.2,0c0.1,0,0.1,-0.1,0.1,-0.1c0.1,0,0.1,-0.1,0.1,-0.1c0.1,-0.1,0.1,-0.1,0.1,-0.1l0.1,-2.1c0,-0.1,0,-0.1,-0.1,-0.1C47.2,79.4,47.2,79.3,47.2,79.3zM53.4,79.3c-0.1,0,-0.1,-0.1,-0.1,-0.1c-0.1,0,-0.1,0,-0.2,0h-4.7c-0.1,0,-0.1,0,-0.2,0s-0.1,0.1,-0.1,0.1s-0.1,0.1,-0.1,0.1c-0.1,0.1,-0.1,0.1,-0.1,0.1l-0.1,2.1c0,0.1,0,0.1,0.1,0.1c0.1,0.1,0.1,0.1,0.1,0.1c0.1,0.1,0.1,0.1,0.1,0.1c0.1,0,0.1,0,0.2,0h4.7c0.1,0,0.1,0,0.2,0c0.1,0,0.1,-0.1,0.1,-0.1c0.1,-0.1,0.1,-0.1,0.1,-0.1c0.1,-0.1,0.1,-0.1,0.1,-0.1l0.1,-2.1c0,-0.1,0,-0.1,-0.1,-0.1C53.4,79.4,53.4,79.3,53.4,79.3L53.4,79.3zM59.7,79.4c-0.1,-0.1,-0.1,-0.1,-0.1,-0.1c-0.1,0,-0.1,-0.1,-0.1,-0.1c-0.1,0,-0.1,0,-0.2,0h-4.7c-0.1,0,-0.1,0,-0.2,0c-0.1,0,-0.1,0.1,-0.1,0.1s-0.1,0.1,-0.1,0.1c-0.1,0.1,-0.1,0.1,-0.1,0.1l-0.1,2.1c0,0.1,0,0.1,0.1,0.1c0.1,0.1,0.1,0.1,0.1,0.1c0.1,0.1,0.1,0.1,0.1,0.1c0.1,0,0.1,0,0.2,0h4.7c0.1,0,0.1,0,0.2,0s0.1,-0.1,0.1,-0.1c0.1,-0.1,0.1,-0.1,0.1,-0.1c0.1,-0.1,0.1,-0.1,0.1,-0.1v-2.1C59.7,79.5,59.7,79.4,59.7,79.4L59.7,79.4zM65.9,79.4c-0.1,-0.1,-0.1,-0.1,-0.1,-0.1c-0.1,0,-0.1,-0.1,-0.1,-0.1c-0.1,0,-0.1,0,-0.2,0h-4.6c-0.1,0,-0.1,0,-0.2,0s-0.1,0.1,-0.1,0.1c-0.1,0,-0.1,0.1,-0.1,0.1c-0.1,0.1,-0.1,0.1,-0.1,0.1v2.1c0,0.1,0,0.1,0.1,0.1c0.1,0.1,0.1,0.1,0.1,0.1c0.1,0.1,0.1,0.1,0.1,0.1c0.1,0,0.1,0,0.2,0h4.7c0.1,0,0.1,0,0.2,0s0.1,-0.1,0.1,-0.1c0.1,-0.1,0.1,-0.1,0.1,-0.1c0.1,-0.1,0.1,-0.1,0.1,-0.1l-0.1,-2.1C65.9,79.5,65.9,79.4,65.9,79.4L65.9,79.4zM72.2,79.4c-0.1,-0.1,-0.1,-0.1,-0.1,-0.1c-0.1,0,-0.1,-0.1,-0.1,-0.1c-0.1,0,-0.1,0,-0.2,0h-4.7c-0.1,0,-0.1,0,-0.2,0s-0.1,0.1,-0.1,0.1c-0.1,0,-0.1,0.1,-0.1,0.1c-0.1,0.1,-0.1,0.1,-0.1,0.1l0.1,2.1c0,0.1,0,0.1,0.1,0.1c0.1,0.1,0.1,0.1,0.1,0.1c0.1,0.1,0.1,0.1,0.1,0.1c0.1,0,0.1,0,0.2,0h4.7c0.1,0,0.1,0,0.2,0s0.1,-0.1,0.1,-0.1c0.1,-0.1,0.1,-0.1,0.1,-0.1c0.1,-0.1,0.1,-0.1,0.1,-0.1l-0.1,-2.1C72.2,79.5,72.2,79.4,72.2,79.4L72.2,79.4zM78.4,79.4c-0.1,-0.1,-0.1,-0.1,-0.1,-0.1c-0.1,0,-0.1,-0.1,-0.1,-0.1c-0.1,0,-0.1,0,-0.2,0h-4.7c-0.1,0,-0.1,0,-0.2,0s-0.1,0.1,-0.1,0.1c-0.1,0,-0.1,0.1,-0.1,0.1c-0.1,0.1,-0.1,0.1,-0.1,0.1l0.1,2.1c0,0.1,0,0.1,0.1,0.1c0.1,0.1,0.1,0.1,0.1,0.1c0.1,0.1,0.1,0.1,0.1,0.1c0.1,0,0.1,0,0.2,0h4.7c0.1,0,0.1,0,0.2,0s0.1,-0.1,0.1,-0.1c0.1,-0.1,0.1,-0.1,0.1,-0.1c0.1,-0.1,0.1,-0.1,0.1,-0.1l-0.1,-2.1C78.5,79.5,78.4,79.4,78.4,79.4L78.4,79.4zM84.6,79.4c-0.1,-0.1,-0.1,-0.1,-0.1,-0.1c-0.1,-0.1,-0.1,-0.1,-0.1,-0.1c-0.1,0,-0.1,0,-0.2,0h-4.7c-0.1,0,-0.1,0,-0.2,0s-0.1,0.1,-0.1,0.1c-0.1,0,-0.1,0.1,-0.1,0.1c-0.1,0.1,-0.1,0.1,-0.1,0.1l0.2,2.1c0,0.1,0.1,0.1,0.1,0.1c0.1,0.1,0.1,0.1,0.1,0.1c0.1,0.1,0.1,0.1,0.1,0.1c0.1,0,0.1,0,0.2,0h4.7c0.1,0,0.1,0,0.2,0s0.1,-0.1,0.1,-0.1c0.1,-0.1,0.1,-0.1,0.1,-0.1c0.1,-0.1,0.1,-0.1,0.1,-0.1l-0.2,-2.1C84.7,79.5,84.7,79.4,84.6,79.4L84.6,79.4zM90.8,79.4c-0.1,-0.1,-0.1,-0.1,-0.1,-0.1c-0.1,0,-0.1,-0.1,-0.1,-0.1c-0.1,0,-0.1,0,-0.2,0h-4.7c-0.1,0,-0.1,0,-0.2,0s-0.1,0.1,-0.1,0.1s-0.1,0.1,-0.1,0.1c-0.1,0.1,-0.1,0.1,-0.1,0.1l0.2,2.1c0,0.1,0.1,0.1,0.1,0.1c0.1,0.1,0.1,0.1,0.1,0.1c0.1,0.1,0.1,0.1,0.1,0.1c0.1,0,0.1,0,0.2,0h4.7c0.1,0,0.1,0,0.2,0s0.1,-0.1,0.1,-0.1c0.1,-0.1,0.1,-0.1,0.1,-0.1c0.1,-0.1,0.1,-0.1,0.1,-0.1l-0.3,-2.1C90.9,79.5,90.8,79.4,90.8,79.4L90.8,79.4zM103.4,79.4c-0.1,-0.1,-0.1,-0.1,-0.1,-0.1c-0.1,0,-0.1,-0.1,-0.1,-0.1c-0.1,0,-0.1,0,-0.2,0h-10.9c-0.1,0,-0.1,0,-0.2,0s-0.1,0.1,-0.1,0.1c-0.1,0.1,-0.1,0.1,-0.1,0.1c-0.1,0.1,-0.1,0.1,-0.1,0.1l0.3,2.1c0,0.1,0.1,0.1,0.1,0.1c0.1,0.1,0.1,0.1,0.1,0.1c0.1,0.1,0.1,0.1,0.1,0.1c0.1,0,0.1,0,0.2,0h11c0.1,0,0.1,0,0.2,0s0.1,-0.1,0.1,-0.1c0.1,-0.1,0.1,-0.1,0.1,-0.1c0.1,-0.1,0.1,-0.1,0.1,-0.1l-0.4,-2.1L103.4,79.4L103.4,79.4zM104.5,81.7c0.1,0.1,0.1,0.1,0.1,0.1c0.1,0.1,0.1,0.1,0.1,0.1c0.1,0,0.1,0,0.2,0h4.7c0.1,0,0.1,0,0.2,0c0.1,0,0.1,-0.1,0.1,-0.1c0.1,-0.1,0.1,-0.1,0.1,-0.1c0,-0.1,0.1,-0.1,0,-0.1l-0.4,-2.1c0,-0.1,-0.1,-0.1,-0.1,-0.1s-0.1,-0.1,-0.1,-0.1c-0.1,-0.1,-0.1,-0.1,-0.1,-0.1c-0.1,0,-0.1,0,-0.2,0h-4.7c-0.1,0,-0.1,0,-0.2,0s-0.1,0.1,-0.1,0.1c-0.1,0.1,-0.1,0.1,-0.1,0.1c-0.1,0.1,-0.1,0.1,-0.1,0.1l0.4,2.1C104.5,81.7,104.5,81.7,104.5,81.7zM24.2,84.8c0.1,0,0.1,-0.1,0.1,-0.1c0.1,-0.1,0.1,-0.1,0.1,-0.1c0.1,-0.1,0.1,-0.1,0.1,-0.1l0.3,-2.1c0,-0.1,0,-0.1,-0.1,-0.1c-0.1,-0.1,-0.1,-0.1,-0.1,-0.1c-0.1,-0.1,-0.1,-0.1,-0.1,-0.1c-0.1,0,-0.1,0,-0.2,0H19.7c-0.1,0,-0.1,0,-0.2,0s-0.1,0.1,-0.1,0.1c-0.1,0.1,-0.1,0.1,-0.1,0.1c-0.1,0.1,-0.1,0.1,-0.1,0.1l-0.3,2.1c0,0.1,0,0.1,0.1,0.1c0.1,0.1,0.1,0.1,0.1,0.1c0.1,0.1,0.1,0.1,0.1,0.1c0.1,0,0.1,0,0.2,0h4.7C24.1,84.9,24.2,84.9,24.2,84.8zM9.6,84.8C9.7,84.9,9.7,84.9,9.8,84.9s0.1,0,0.2,0h7.6c0.1,0,0.1,0,0.2,0c0.1,0,0.1,-0.1,0.1,-0.1c0.1,-0.1,0.1,-0.1,0.1,-0.1c0.1,-0.1,0.1,-0.1,0.1,-0.1l0.4,-2.1c0,-0.1,0,-0.1,-0.1,-0.1c-0.1,-0.1,-0.1,-0.1,-0.1,-0.1c-0.1,-0.1,-0.1,-0.1,-0.1,-0.1c-0.1,0,-0.1,0,-0.2,0H10.4c-0.1,0,-0.1,0,-0.2,0c-0.1,0,-0.1,0.1,-0.1,0.1c-0.1,0.1,-0.1,0.1,-0.1,0.1c-0.1,0.1,-0.1,0.1,-0.1,0.1l-0.4,2.1c0,0.1,0,0.1,0,0.1C9.6,84.7,9.6,84.7,9.6,84.8L9.6,84.8zM30.6,84.8c0.1,0,0.1,-0.1,0.1,-0.1c0.1,0,0.1,0,0.1,0c0.1,-0.1,0.1,-0.1,0.1,-0.1l0.3,-2.1c0,-0.1,0,-0.1,-0.1,-0.1c-0.1,-0.1,-0.1,-0.1,-0.1,-0.1c-0.1,-0.1,-0.1,-0.1,-0.1,-0.1s-0.1,0,-0.2,0h-4.7c-0.1,0,-0.1,0,-0.2,0s-0.1,0.1,-0.1,0.1c-0.1,0.1,-0.1,0.1,-0.1,0.1c-0.1,0.1,-0.1,0.1,-0.1,0.1l-0.3,2.1c0,0.1,0,0.1,0.1,0.1c0.1,0.1,0.1,0.1,0.1,0.1c0.1,0.1,0.1,0.1,0.1,0.1c0.1,0,0.1,0,0.2,0h4.7C30.4,84.9,30.6,84.9,30.6,84.8L30.6,84.8zM37,84.8c0.1,0,0.1,-0.1,0.1,-0.1h0.1c0.1,-0.1,0.1,-0.1,0.1,-0.1l0.2,-2.1c0,-0.1,0,-0.1,-0.1,-0.1c-0.1,-0.1,-0.1,-0.1,-0.1,-0.1s-0.1,-0.1,-0.1,-0.1s-0.1,0,-0.2,0h-4.7c-0.1,0,-0.1,0,-0.2,0c-0.1,0,-0.1,0.1,-0.1,0.1c-0.1,0.1,-0.1,0.1,-0.1,0.1c-0.1,0.1,-0.1,0.1,-0.1,0.1l-0.3,2.1c0,0.1,0,0.1,0.1,0.1c0.1,0.1,0.1,0.1,0.1,0.1c0.1,0.1,0.1,0.1,0.1,0.1s0.1,0,0.2,0h4.7C36.8,84.9,36.9,84.9,37,84.8L37,84.8zM38.4,82.3c-0.1,0,-0.1,0.1,-0.1,0.1c-0.1,0.1,-0.1,0.1,-0.1,0.1c-0.1,0.1,-0.1,0.1,-0.1,0.1l-0.2,2.1c0,0.1,0,0.1,0.1,0.1c0.1,0.1,0.1,0.1,0.1,0.1c0.1,0.1,0.1,0.1,0.1,0.1c0.1,0,0.1,0,0.2,0h4.7c0.1,0,0.1,0,0.2,0c0.1,0,0.1,-0.1,0.1,-0.1c0.1,-0.1,0.1,-0.1,0.1,-0.1s0.1,-0.1,0.1,-0.1l0.1,-2.1c0,-0.1,0,-0.1,-0.1,-0.1c-0.1,-0.1,-0.1,-0.1,-0.1,-0.1c-0.1,-0.1,-0.1,-0.1,-0.1,-0.1c-0.1,0,-0.1,0,-0.2,0h-4.7C38.5,82.2,38.5,82.2,38.4,82.3L38.4,82.3zM44.7,82.3c-0.1,0,-0.1,0.1,-0.1,0.1c-0.1,0.1,-0.1,0.1,-0.1,0.1c-0.1,0.1,-0.1,0.1,-0.1,0.1l-0.1,2.1c0,0.1,0,0.1,0.1,0.1c0.1,0.1,0.1,0.1,0.1,0.1c0.1,0.1,0.1,0.1,0.1,0.1c0.1,0,0.1,0,0.2,0h4.7c0.1,0,0.1,0,0.2,0c0.1,0,0.1,-0.1,0.1,-0.1c0.1,-0.1,0.1,-0.1,0.1,-0.1s0.1,-0.1,0.1,-0.1l0.1,-2.1c0,-0.1,0,-0.1,-0.1,-0.1c-0.1,-0.1,-0.1,-0.1,-0.1,-0.1c-0.1,-0.1,-0.1,-0.1,-0.1,-0.1c-0.1,0,-0.1,0,-0.2,0h-4.7C44.8,82.2,44.7,82.2,44.7,82.3L44.7,82.3zM51,82.3c-0.1,0,-0.1,0.1,-0.1,0.1c-0.1,0.1,-0.1,0.1,-0.1,0.1c-0.1,0.1,-0.1,0.1,-0.1,0.1l-0.1,2.1c0,0.1,0,0.1,0.1,0.1c0.1,0.1,0.1,0.1,0.1,0.1c0.1,0.1,0.1,0.1,0.1,0.1c0.1,0,0.1,0,0.2,0h4.7c0.1,0,0.1,0,0.2,0c0.1,0,0.1,-0.1,0.1,-0.1c0.1,-0.1,0.1,-0.1,0.1,-0.1c0.1,-0.1,0.1,-0.1,0.1,-0.1l0.1,-2.1c0,-0.1,0,-0.1,-0.1,-0.1c-0.1,-0.1,-0.1,-0.1,-0.1,-0.1c-0.1,-0.1,-0.1,-0.1,-0.1,-0.1c-0.1,0,-0.1,0,-0.2,0h-4.7C51.1,82.2,51.1,82.2,51,82.3L51,82.3zM57.3,82.3c-0.1,0,-0.1,0.1,-0.1,0.1c-0.1,0.1,-0.1,0.1,-0.1,0.1c-0.1,0.1,-0.1,0.1,-0.1,0.1l-0.1,2.1c0,0.1,0,0.1,0.1,0.1c0.1,0.1,0.1,0.1,0.1,0.1c0.1,0.1,0.1,0.1,0.1,0.1c0.1,0,0.1,0,0.2,0h4.7c0.1,0,0.1,0,0.2,0s0.1,-0.1,0.1,-0.1c0.1,-0.1,0.1,-0.1,0.1,-0.1c0.1,-0.1,0.1,-0.1,0.1,-0.1l-0.1,-2.1c0,-0.1,0,-0.1,-0.1,-0.1c-0.1,-0.1,-0.1,-0.1,-0.1,-0.1c-0.1,-0.1,-0.1,-0.1,-0.1,-0.1c-0.1,0,-0.1,0,-0.2,0H57.4C57.4,82.2,57.3,82.2,57.3,82.3L57.3,82.3zM63.6,82.3c-0.1,0,-0.1,0.1,-0.1,0.1c-0.1,0.1,-0.1,0.1,-0.1,0.1c-0.1,0.1,-0.1,0.1,-0.1,0.1l0.1,2.1c0,0.1,0,0.1,0.1,0.1h0.1c0.1,0.1,0.1,0.1,0.1,0.1c0.1,0,0.1,0,0.2,0H68.5c0.1,0,0.1,0,0.2,0s0.1,-0.1,0.1,-0.1c0.1,-0.1,0.1,-0.1,0.1,-0.1c0.1,-0.1,0.1,-0.1,0.1,-0.1l-0.1,-2.1c0,-0.1,0,-0.1,-0.1,-0.1c-0.1,-0.1,-0.1,-0.1,-0.1,-0.1c-0.1,-0.1,-0.1,-0.1,-0.1,-0.1c-0.1,0,-0.1,0,-0.2,0h-4.7C63.6,82.2,63.6,82.2,63.6,82.3L63.6,82.3zM69.9,82.3c-0.1,0,-0.1,0.1,-0.1,0.1c-0.1,0.1,-0.1,0.1,-0.1,0.1c-0.1,0,-0.1,0.1,-0.1,0.1l0.1,2.1c0,0.1,0,0.1,0.1,0.1c0.1,0.1,0.1,0.1,0.1,0.1c0.1,0.1,0.1,0.1,0.1,0.1c0.1,0,0.1,0,0.2,0h4.7c0.1,0,0.1,0,0.2,0c0.1,0,0.1,-0.1,0.1,-0.1c0.1,-0.1,0.1,-0.1,0.1,-0.1c0.1,-0.1,0.1,-0.1,0.1,-0.1l-0.1,-2.1c0,-0.1,0,-0.1,-0.1,-0.1c-0.1,-0.1,-0.1,-0.1,-0.1,-0.1c-0.1,-0.1,-0.1,-0.1,-0.1,-0.1c-0.1,0,-0.1,0,-0.2,0h-4.7C70,82.2,69.9,82.2,69.9,82.3L69.9,82.3zM76.1,82.3c-0.1,0,-0.1,0.1,-0.1,0.1c-0.1,0.1,-0.1,0.1,-0.1,0.1c-0.1,0.1,-0.1,0.1,-0.1,0.1l0.1,2.1c0,0.1,0,0.1,0.1,0.1c0.1,0.1,0.1,0.1,0.1,0.1c0.1,0.1,0.1,0.1,0.1,0.1c0.1,0,0.1,0,0.2,0h4.7c0.1,0,0.1,0,0.2,0s0.1,-0.1,0.1,-0.1c0.1,-0.1,0.1,-0.1,0.1,-0.1c0.1,-0.1,0.1,-0.1,0.1,-0.1l-0.2,-2.1c0,-0.1,-0.1,-0.1,-0.1,-0.1c-0.1,-0.1,-0.1,-0.1,-0.1,-0.1c-0.1,-0.1,-0.1,-0.1,-0.1,-0.1c-0.1,0,-0.1,0,-0.2,0H76.3C76.3,82.2,76.2,82.2,76.1,82.3L76.1,82.3zM82.5,82.3c-0.1,0,-0.1,0.1,-0.1,0.1c-0.1,0.1,-0.1,0.1,-0.1,0.1c-0.1,0,-0.1,0.1,-0.1,0.1l0.2,2.1c0,0.1,0.1,0.1,0.1,0.1c0.1,0.1,0.1,0.1,0.1,0.1c0.1,0.1,0.1,0.1,0.1,0.1c0.1,0,0.1,0,0.2,0H87.6c0.1,0,0.1,0,0.2,0s0.1,-0.1,0.1,-0.1c0.1,-0.1,0.1,-0.1,0.1,-0.1c0.1,0,0.1,-0.1,0.1,-0.1l-0.3,-2.1c0,-0.1,-0.1,-0.1,-0.1,-0.1c-0.1,-0.1,-0.1,-0.1,-0.1,-0.1c-0.1,-0.1,-0.1,-0.1,-0.1,-0.1c-0.1,0,-0.1,0,-0.2,0h-4.7C82.6,82.2,82.5,82.2,82.5,82.3L82.5,82.3zM88.8,82.3c-0.1,0,-0.1,0.1,-0.1,0.1c-0.1,0.1,-0.1,0.1,-0.1,0.1c-0.1,0,-0.1,0.1,-0.1,0.1l0.3,2.1c0,0.1,0.1,0.1,0.1,0.1c0.1,0.1,0.1,0.1,0.1,0.1c0.1,0.1,0.1,0.1,0.1,0.1c0.1,0,0.1,0,0.2,0h4.7c0.1,0,0.1,0,0.2,0s0.1,-0.1,0.1,-0.1c0.1,-0.1,0.1,-0.1,0.1,-0.1c0.1,-0.1,0.1,-0.1,0.1,-0.1l-0.3,-2.1c0,-0.1,-0.1,-0.1,-0.1,-0.1c-0.1,-0.1,-0.1,-0.1,-0.1,-0.1c-0.1,-0.1,-0.1,-0.1,-0.1,-0.1c-0.1,0,-0.1,0,-0.2,0h-4.7C88.9,82.2,88.8,82.2,88.8,82.3L88.8,82.3zM103.6,82.3c-0.1,0,-0.1,0,-0.2,0h-8.1c-0.1,0,-0.1,0,-0.2,0s-0.1,0.1,-0.1,0.1c-0.1,0.1,-0.1,0.1,-0.1,0.1c-0.1,0.1,-0.1,0.1,-0.1,0.1l0.3,2.1c0,0.1,0.1,0.1,0.1,0.1c0.1,0.1,0.1,0.1,0.1,0.1c0.1,0.1,0.1,0.1,0.1,0.1c0.1,0,0.1,0,0.2,0h8.2c0.1,0,0.1,0,0.2,0s0.1,-0.1,0.1,-0.1c0.1,-0.1,0.1,-0.1,0.1,-0.1c0.1,-0.1,0.1,-0.1,0.1,-0.1l-0.4,-2.1c0,-0.1,-0.1,-0.1,-0.1,-0.1c-0.1,-0.1,-0.1,-0.1,-0.1,-0.1C103.6,82.3,103.6,82.3,103.6,82.3L103.6,82.3zM20.3,87.9c0.1,0.1,0.1,0.1,0.1,0.1c0.1,0,0.1,0,0.2,0h4.8c0.1,0,0.1,0,0.2,0s0.1,-0.1,0.1,-0.1c0.1,-0.1,0.1,-0.1,0.1,-0.1c0.1,-0.1,0.1,-0.1,0.1,-0.1l0.3,-2.1c0,-0.1,0,-0.1,-0.1,-0.1c-0.1,-0.1,-0.1,-0.1,-0.1,-0.1c-0.1,-0.1,-0.1,-0.1,-0.1,-0.1c-0.1,0,-0.1,0,-0.2,0H20.9c-0.1,0,-0.1,0,-0.2,0s-0.1,0.1,-0.1,0.1c-0.1,0.1,-0.1,0.1,-0.1,0.1c-0.1,0.1,-0.1,0.1,-0.1,0.1l-0.3,2.1c0,0.1,0,0.1,0.1,0.1S20.2,87.9,20.3,87.9L20.3,87.9zM9,87.9c0.1,0.1,0.1,0.1,0.1,0.1c0.1,0,0.1,0,0.2,0h9.3c0.1,0,0.1,0,0.2,0s0.1,-0.1,0.1,-0.1c0.1,-0.1,0.1,-0.1,0.1,-0.1c0.1,-0.1,0.1,-0.1,0.1,-0.1l0.4,-2.1c0,-0.1,0,-0.1,-0.1,-0.1c-0.1,-0.1,-0.1,-0.1,-0.1,-0.1c-0.1,-0.1,-0.1,-0.1,-0.1,-0.1c-0.1,0,-0.1,0,-0.2,0h-9.2c-0.1,0,-0.1,0,-0.2,0c-0.1,0,-0.1,0.1,-0.1,0.1c-0.1,0.1,-0.1,0.1,-0.1,0.1c-0.1,0.1,-0.1,0.1,-0.1,0.1l-0.4,2.1c0,0.1,0,0.1,0,0.1C8.9,87.8,9,87.9,9,87.9L9,87.9zM26.7,87.9c0.1,0.1,0.1,0.1,0.1,0.1c0.1,0,0.1,0,0.2,0h4.8c0.1,0,0.1,0,0.2,0c0.1,0,0.1,-0.1,0.1,-0.1c0.1,-0.1,0.1,-0.1,0.1,-0.1c0.1,-0.1,0.1,-0.1,0.1,-0.1l0.2,-2.1c0,-0.1,0,-0.1,-0.1,-0.1c-0.1,-0.1,-0.1,-0.1,-0.1,-0.1c-0.1,-0.1,-0.1,-0.1,-0.1,-0.1s-0.1,0,-0.2,0H27.3c-0.1,0,-0.1,0,-0.2,0c-0.1,0,-0.1,0.1,-0.1,0.1c-0.1,0.1,-0.1,0.1,-0.1,0.1c-0.1,0.1,-0.1,0.1,-0.1,0.1l-0.3,2.1c0,0.1,0,0.1,0.1,0.1C26.6,87.8,26.6,87.9,26.7,87.9zM33.1,87.9c0.1,0.1,0.1,0.1,0.1,0.1c0.1,0,0.1,0,0.2,0h4.8c0.1,0,0.1,0,0.2,0c0.1,0,0.1,-0.1,0.1,-0.1c0.1,-0.1,0.1,-0.1,0.1,-0.1c0.1,-0.1,0.1,-0.1,0.1,-0.1l0.2,-2.1c0,-0.1,0,-0.1,-0.1,-0.1c-0.1,-0.1,-0.1,-0.1,-0.1,-0.1c-0.1,-0.1,-0.1,-0.1,-0.1,-0.1c-0.1,0,-0.1,0,-0.2,0h-4.8c-0.1,0,-0.1,0,-0.2,0c-0.1,0,-0.1,0.1,-0.1,0.1c-0.1,0.1,-0.1,0.1,-0.1,0.1c-0.1,0.1,-0.1,0.1,-0.1,0.1l-0.2,2.1c0,0.1,0,0.1,0.1,0.1C33,87.8,33.1,87.9,33.1,87.9L33.1,87.9zM44.9,87.9c0.1,0,0.1,-0.1,0.1,-0.1c0.1,-0.1,0.1,-0.1,0.1,-0.1c0.1,-0.1,0.1,-0.1,0.1,-0.1l0.1,-2.1c0,-0.1,0,-0.1,-0.1,-0.1c-0.1,-0.1,-0.1,-0.1,-0.1,-0.1c-0.1,-0.1,-0.1,-0.1,-0.1,-0.1c-0.1,0,-0.1,0,-0.2,0h-4.8c-0.1,0,-0.1,0,-0.2,0s-0.1,0.1,-0.1,0.1c-0.1,0.1,-0.1,0.1,-0.1,0.1c-0.1,0.1,-0.1,0.1,-0.1,0.1l-0.2,2.1c0,0.1,0,0.1,0.1,0.1c0.1,0.1,0.1,0.1,0.1,0.1c0.1,0.1,0.1,0.1,0.1,0.1c0.1,0,0.1,0,0.2,0h4.9C44.7,88,44.9,88,44.9,87.9zM51.3,87.9c0.1,0,0.1,-0.1,0.1,-0.1c0.1,-0.1,0.1,-0.1,0.1,-0.1c0.1,-0.1,0.1,-0.1,0.1,-0.1l0.1,-2.1c0,-0.1,0,-0.1,-0.1,-0.1c-0.1,-0.1,-0.1,-0.1,-0.1,-0.1c-0.1,-0.1,-0.1,-0.1,-0.1,-0.1c-0.1,0,-0.1,0,-0.2,0h-4.8c-0.1,0,-0.1,0,-0.2,0c-0.1,0,-0.1,0.1,-0.1,0.1c-0.1,0.1,-0.1,0.1,-0.1,0.1c-0.1,0.1,-0.1,0.1,-0.1,0.1l-0.1,2.1c0,0.1,0,0.1,0.1,0.1c0.1,0.1,0.1,0.1,0.1,0.1c0.1,0.1,0.1,0.1,0.1,0.1c0.1,0,0.1,0,0.2,0H51.1C51.2,88,51.3,88,51.3,87.9L51.3,87.9zM57.8,87.9c0.1,0,0.1,-0.1,0.1,-0.1c0.1,-0.1,0.1,-0.1,0.1,-0.1c0.1,-0.1,0.1,-0.1,0.1,-0.1v-2.1c0,-0.1,0,-0.1,-0.1,-0.1c-0.1,-0.1,-0.1,-0.1,-0.1,-0.1c-0.1,-0.1,-0.1,-0.1,-0.1,-0.1c-0.1,0,-0.1,0,-0.2,0H52.7c-0.1,0,-0.1,0,-0.2,0c-0.1,0,-0.1,0.1,-0.1,0.1c-0.1,0.1,-0.1,0.1,-0.1,0.1c-0.1,0.1,-0.1,0.1,-0.1,0.1l-0.1,2.1c0,0.1,0,0.1,0.1,0.1c0.1,0.1,0.1,0.1,0.1,0.1c0.1,0.1,0.1,0.1,0.1,0.1c0.1,0,0.1,0,0.2,0h4.8C57.7,88,57.8,88,57.8,87.9L57.8,87.9zM64.2,87.9c0.1,0,0.1,-0.1,0.1,-0.1c0.1,-0.1,0.1,-0.1,0.1,-0.1c0.1,-0.1,0.1,-0.1,0.1,-0.1l-0.1,-2.1c0,-0.1,0,-0.1,-0.1,-0.1c-0.1,-0.1,-0.1,-0.1,-0.1,-0.1c-0.1,-0.1,-0.1,-0.1,-0.1,-0.1c-0.1,0,-0.1,0,-0.2,0h-4.8c-0.1,0,-0.1,0,-0.2,0s-0.1,0.1,-0.1,0.1c-0.1,0.1,-0.1,0.1,-0.1,0.1c-0.1,0.1,-0.1,0.1,-0.1,0.1v2.1c0,0.1,0,0.1,0.1,0.1c0.1,0.1,0.1,0.1,0.1,0.1c0.1,0.1,0.1,0.1,0.1,0.1c0.1,0,0.1,0,0.2,0h4.8C64.1,88,64.2,88,64.2,87.9L64.2,87.9zM70.6,87.9c0.1,0,0.1,-0.1,0.1,-0.1c0.1,-0.1,0.1,-0.1,0.1,-0.1c0.1,-0.1,0.1,-0.1,0.1,-0.1l-0.1,-2.1c0,-0.1,0,-0.1,-0.1,-0.1c-0.1,-0.1,-0.1,-0.1,-0.1,-0.1c-0.1,-0.1,-0.1,-0.1,-0.1,-0.1c-0.1,0,-0.1,0,-0.2,0h-4.8c-0.1,0,-0.1,0,-0.2,0s-0.1,0.1,-0.1,0.1c-0.1,0.1,-0.1,0.1,-0.1,0.1c-0.1,0.1,-0.1,0.1,-0.1,0.1l0.1,2.1c0,0.1,0,0.1,0.1,0.1c0.1,0.1,0.1,0.1,0.1,0.1c0.1,0.1,0.1,0.1,0.1,0.1c0.1,0,0.1,0,0.2,0h4.8C70.6,88,70.6,88,70.6,87.9L70.6,87.9zM77.1,87.9c0.1,0,0.1,-0.1,0.1,-0.1c0.1,-0.1,0.1,-0.1,0.1,-0.1c0.1,-0.1,0.1,-0.1,0.1,-0.1l-0.1,-2.1c0,-0.1,0,-0.1,-0.1,-0.1c-0.1,-0.1,-0.1,-0.1,-0.1,-0.1c-0.1,-0.1,-0.1,-0.1,-0.1,-0.1c-0.1,0,-0.1,0,-0.2,0h-4.8c-0.1,0,-0.1,0,-0.2,0s-0.1,0.1,-0.1,0.1c-0.1,0.1,-0.1,0.1,-0.1,0.1c-0.1,0.1,-0.1,0.1,-0.1,0.1l0.1,2.1c0,0.1,0,0.1,0.1,0.1c0.1,0.1,0.1,0.1,0.1,0.1c0.1,0.1,0.1,0.1,0.1,0.1c0.1,0,0.1,0,0.2,0H76.9C77,88,77,88,77.1,87.9zM83.5,87.9c0.1,0,0.1,-0.1,0.1,-0.1c0.1,-0.1,0.1,-0.1,0.1,-0.1c0.1,-0.1,0.1,-0.1,0.1,-0.1l-0.2,-2.1c0,-0.1,-0.1,-0.1,-0.1,-0.1c-0.1,-0.1,-0.1,-0.1,-0.1,-0.1c-0.1,-0.1,-0.1,-0.1,-0.1,-0.1c-0.1,0,-0.1,0,-0.2,0h-4.8c-0.1,0,-0.1,0,-0.2,0s-0.1,0.1,-0.1,0.1c-0.1,0.1,-0.1,0.1,-0.1,0.1c-0.1,0.1,-0.1,0.1,-0.1,0.1l0.1,2.1c0,0.1,0.1,0.1,0.1,0.1c0.1,0.1,0.1,0.1,0.1,0.1c0.1,0.1,0.1,0.1,0.1,0.1c0.1,0,0.1,0,0.2,0h4.8C83.5,88,83.5,88,83.5,87.9L83.5,87.9zM90,87.9c0.1,0,0.1,-0.1,0.1,-0.1c0.1,-0.1,0.1,-0.1,0.1,-0.1c0.1,-0.1,0.1,-0.1,0.1,-0.1l-0.3,-2.1c0,-0.1,-0.1,-0.1,-0.1,-0.1c-0.1,-0.1,-0.1,-0.1,-0.1,-0.1c-0.1,-0.1,-0.1,-0.1,-0.1,-0.1c-0.1,0,-0.1,0,-0.2,0h-4.8c-0.1,0,-0.1,0,-0.2,0s-0.1,0.1,-0.1,0.1c-0.1,0.1,-0.1,0.1,-0.1,0.1c-0.1,0.1,-0.1,0.1,-0.1,0.1l0.2,2.1c0,0.1,0.1,0.1,0.1,0.1c0.1,0.1,0.1,0.1,0.1,0.1c0.1,0.1,0.1,0.1,0.1,0.1c0.1,0,0.1,0,0.2,0H89.7C89.9,88,89.9,88,90,87.9L90,87.9zM104.7,87.9c0.1,0,0.1,-0.1,0.1,-0.1c0.1,-0.1,0.1,-0.1,0.1,-0.1c0.1,-0.1,0.1,-0.1,0.1,-0.1l-0.4,-2.1c0,-0.1,-0.1,-0.1,-0.1,-0.1c-0.1,-0.1,-0.1,-0.1,-0.1,-0.1c-0.1,-0.1,-0.1,-0.1,-0.1,-0.1c-0.1,0,-0.1,0,-0.2,0h-12.9c-0.1,0,-0.1,0,-0.2,0s-0.1,0.1,-0.1,0.1c-0.1,0.1,-0.1,0.1,-0.1,0.1c-0.1,0.1,-0.1,0.1,-0.1,0.1l0.3,2.1c0,0.1,0.1,0.1,0.1,0.1c0.1,0.1,0.1,0.1,0.1,0.1c0.1,0.1,0.1,0.1,0.1,0.1c0.1,0,0.1,0,0.2,0h12.9C104.5,88,104.6,88,104.7,87.9L104.7,87.9zM29.6,88.5c-0.1,-0.1,-0.1,-0.1,-0.1,-0.1c-0.1,-0.1,-0.1,-0.1,-0.1,-0.1s-0.1,0,-0.2,0h-4.8c-0.1,0,-0.1,0,-0.2,0s-0.1,0.1,-0.1,0.1c-0.1,0.1,-0.1,0.1,-0.1,0.1c-0.1,0,-0.1,0.1,-0.1,0.1l-0.3,2.2c0,0.1,0,0.1,0.1,0.1c0.1,0.1,0.1,0.1,0.1,0.1c0.1,0.1,0.1,0.1,0.1,0.1c0.1,0,0.1,0,0.2,0h4.9c0.1,0,0.1,0,0.2,0c0.1,0,0.1,-0.1,0.1,-0.1c0.1,-0.1,0.1,-0.1,0.1,-0.1c0.1,-0.1,0.1,-0.1,0.1,-0.1l0.3,-2.2C29.6,88.5,29.6,88.5,29.6,88.5zM22.7,90.7l0.3,-2.2c0,-0.1,0,-0.1,-0.1,-0.1c-0.1,-0.1,-0.1,-0.1,-0.1,-0.1c-0.1,-0.1,-0.1,-0.1,-0.1,-0.1c-0.1,0,-0.1,0,-0.2,0H9.3c-0.1,0,-0.1,0,-0.2,0s-0.1,0.1,-0.2,0.1c-0.1,0.1,-0.1,0.1,-0.1,0.1c-0.1,0.1,-0.1,0.1,-0.1,0.1l-0.4,2.2c0,0.1,0,0.1,0,0.1c0,0.1,0.1,0.1,0.1,0.1c0.1,0.1,0.1,0.1,0.1,0.1s0.1,0,0.2,0h13.4c0.1,0,0.1,0,0.2,0s0.1,-0.1,0.2,-0.1c0.1,-0.1,0.1,-0.1,0.1,-0.1C22.6,90.9,22.6,90.8,22.7,90.7L22.7,90.7zM36,88.5c-0.1,-0.1,-0.1,-0.1,-0.1,-0.1c-0.1,0,-0.1,0,-0.2,0h-4.9c-0.1,0,-0.1,0,-0.2,0c-0.1,0,-0.1,0.1,-0.1,0.1c-0.1,0.1,-0.1,0.1,-0.1,0.1c-0.1,0.1,-0.1,0.1,-0.1,0.1l-0.3,2.2c0,0.1,0,0.1,0.1,0.1c0.1,0.1,0.1,0.1,0.1,0.1c0.1,0.1,0.1,0.1,0.1,0.1c0.1,0,0.1,0,0.2,0h4.9c0.1,0,0.1,0,0.2,0c0.1,0,0.1,-0.1,0.1,-0.1c0.1,-0.1,0.1,-0.1,0.1,-0.1c0.1,-0.1,0.1,-0.1,0.1,-0.1l0.2,-2.2c0,-0.1,0,-0.1,-0.1,-0.1C36,88.5,36,88.5,36,88.5L36,88.5zM28.6,91.6c-0.1,-0.1,-0.1,-0.1,-0.1,-0.1c-0.1,0,-0.1,0,-0.2,0h-4.9c-0.1,0,-0.1,0,-0.2,0c-0.1,0,-0.1,0.1,-0.2,0.1c-0.1,0.1,-0.1,0.1,-0.1,0.1c-0.1,0.1,-0.1,0.1,-0.1,0.1l-0.3,2.3c0,0.1,0,0.1,0.1,0.1c0.1,0.1,0.1,0.1,0.1,0.1c0.1,0.1,0.1,0.1,0.1,0.1c0.1,0,0.1,0,0.2,0h4.9c0.1,0,0.1,0,0.2,0c0.1,0,0.1,-0.1,0.2,-0.1c0.1,-0.1,0.1,-0.1,0.1,-0.1c0.1,-0.1,0.1,-0.1,0.1,-0.1l0.3,-2.3c0,-0.1,0,-0.1,-0.1,-0.1C28.7,91.6,28.6,91.6,28.6,91.6L28.6,91.6zM21.7,91.6c-0.1,-0.1,-0.1,-0.1,-0.1,-0.1c-0.1,0,-0.1,0,-0.2,0H16.5c-0.1,0,-0.1,0,-0.2,0c-0.1,0,-0.1,0.1,-0.2,0.1c-0.1,0.1,-0.1,0.1,-0.1,0.1c-0.1,0.1,-0.1,0.1,-0.1,0.1l-0.4,2.3c0,0.1,0,0.1,0.1,0.1c0.1,0.1,0.1,0.1,0.1,0.1c0.1,0.1,0.1,0.1,0.1,0.1c0.1,0,0.1,0,0.2,0h4.9c0.1,0,0.1,0,0.2,0c0.1,0,0.1,-0.1,0.2,-0.1c0.1,-0.1,0.1,-0.1,0.1,-0.1c0.1,-0.1,0.1,-0.1,0.1,-0.1l0.3,-2.3c0,-0.1,0,-0.1,-0.1,-0.1C21.8,91.6,21.8,91.6,21.7,91.6zM35.4,91.6c-0.1,-0.1,-0.1,-0.1,-0.1,-0.1c-0.1,0,-0.1,0,-0.2,0h-4.9c-0.1,0,-0.1,0,-0.2,0c-0.1,0,-0.1,0.1,-0.1,0.1c-0.1,0.1,-0.1,0.1,-0.1,0.1c-0.1,0.1,-0.1,0.1,-0.1,0.1l-0.3,2.3c0,0.1,0,0.1,0.1,0.1c0.1,0.1,0.1,0.1,0.1,0.1c0.1,0.1,0.1,0.1,0.1,0.1c0.1,0,0.1,0,0.2,0h4.9c0.1,0,0.1,0,0.2,0c0.1,0,0.1,-0.1,0.1,-0.1c0.1,-0.1,0.1,-0.1,0.1,-0.1c0.1,-0.1,0.1,-0.1,0.1,-0.1l0.2,-2.3c0,-0.1,0,-0.1,-0.1,-0.1C35.5,91.6,35.5,91.6,35.4,91.6L35.4,91.6zM36.7,91c0.1,0.1,0.1,0.1,0.1,0.1c0.1,0,0.1,0,0.2,0h4.9c0.1,0,0.1,0,0.2,0c0.1,0,0.1,-0.1,0.1,-0.1c0.1,-0.1,0.1,-0.1,0.1,-0.1c0.1,-0.1,0.1,-0.1,0.1,-0.1l0.1,-2.2c0,-0.1,0,-0.1,-0.1,-0.1c-0.1,-0.1,-0.1,-0.1,-0.1,-0.1c-0.1,-0.1,-0.1,-0.1,-0.1,-0.1c-0.1,0,-0.1,0,-0.2,0h-4.8c-0.1,0,-0.1,0,-0.2,0c-0.1,0,-0.1,0.1,-0.1,0.1c-0.1,0.1,-0.1,0.1,-0.1,0.1c-0.1,0.1,-0.1,0.1,-0.1,0.1l-0.2,2.2c0,0.1,0,0.1,0.1,0.1C36.5,90.9,36.6,91,36.7,91L36.7,91zM43.2,91c0.1,0.1,0.1,0.1,0.1,0.1c0.1,0,0.1,0,0.2,0h4.9c0.1,0,0.1,0,0.2,0c0.1,0,0.1,-0.1,0.1,-0.1c0.1,-0.1,0.1,-0.1,0.1,-0.1c0.1,-0.1,0.1,-0.1,0.1,-0.1l0.1,-2.2c0,-0.1,0,-0.1,-0.1,-0.1c-0.1,-0.1,-0.1,-0.1,-0.1,-0.1s-0.1,-0.1,-0.1,-0.1c-0.1,0,-0.1,0,-0.2,0h-4.8c-0.1,0,-0.1,0,-0.2,0c-0.1,0,-0.1,0.1,-0.1,0.1c-0.1,0.1,-0.1,0.1,-0.1,0.1c-0.1,0.1,-0.1,0.1,-0.1,0.1l-0.1,2.2c0,0.1,0,0.1,0.1,0.1C43.1,90.9,43.1,91,43.2,91L43.2,91zM49.7,91c0.1,0.1,0.1,0.1,0.1,0.1c0.1,0,0.1,0,0.2,0h4.9c0.1,0,0.1,0,0.2,0s0.1,-0.1,0.1,-0.1c0.1,-0.1,0.1,-0.1,0.1,-0.1c0.1,-0.1,0.1,-0.1,0.1,-0.1l0.1,-2.2c0,-0.1,0,-0.1,-0.1,-0.1c-0.1,-0.1,-0.1,-0.1,-0.1,-0.1c-0.1,-0.1,-0.1,-0.1,-0.1,-0.1c-0.1,0,-0.1,0,-0.2,0h-4.8c-0.1,0,-0.1,0,-0.2,0c-0.1,0,-0.1,0.1,-0.1,0.1c-0.1,0.1,-0.1,0.1,-0.1,0.1c-0.1,0.1,-0.1,0.1,-0.1,0.1l-0.1,2.2c0,0.1,0,0.1,0.1,0.1C49.6,90.9,49.6,91,49.7,91zM56.2,91c0.1,0.1,0.1,0.1,0.1,0.1c0.1,0,0.1,0,0.2,0h4.9c0.1,0,0.1,0,0.2,0s0.1,-0.1,0.1,-0.1c0.1,-0.1,0.1,-0.1,0.1,-0.1c0.1,-0.1,0.1,-0.1,0.1,-0.1l-0.1,-2.2c0,-0.1,0,-0.1,-0.1,-0.1c-0.1,-0.1,-0.1,-0.1,-0.1,-0.1c-0.1,-0.1,-0.1,-0.1,-0.1,-0.1c-0.1,0,-0.1,0,-0.2,0h-4.8c-0.1,0,-0.1,0,-0.2,0s-0.1,0.1,-0.1,0.1c-0.1,0.1,-0.1,0.1,-0.1,0.1c-0.1,0.1,-0.1,0.1,-0.1,0.1l-0.1,2.2c0,0.1,0,0.1,0.1,0.1S56.2,91,56.2,91L56.2,91zM62.6,90.9c0.1,0.1,0.1,0.1,0.1,0.1c0,0.1,0.1,0.1,0.1,0.1c0.1,0,0.1,0,0.2,0h4.9c0.1,0,0.1,0,0.2,0s0.1,-0.1,0.1,-0.1c0.1,-0.1,0.1,-0.1,0.1,-0.1c0.1,-0.1,0.1,-0.1,0.1,-0.1l-0.1,-2.2c0,-0.1,0,-0.1,-0.1,-0.1c-0.1,-0.1,-0.1,-0.1,-0.1,-0.1c-0.1,-0.1,-0.1,-0.1,-0.1,-0.1c-0.1,0,-0.1,0,-0.2,0h-4.8c-0.1,0,-0.1,0,-0.2,0s-0.1,0.1,-0.1,0.1c-0.1,0.1,-0.1,0.1,-0.1,0.1c-0.1,0.1,-0.1,0.1,-0.1,0.1l0.1,2.2C62.6,90.8,62.6,90.9,62.6,90.9L62.6,90.9zM69.2,90.9c0.1,0.1,0.1,0.1,0.1,0.1c0.1,0.1,0.1,0.1,0.1,0.1c0.1,0,0.1,0,0.2,0h4.9c0.1,0,0.1,0,0.2,0s0.1,-0.1,0.1,-0.1c0.1,-0.1,0.1,-0.1,0.1,-0.1c0.1,-0.1,0.1,-0.1,0.1,-0.1l-0.1,-2.2c0,-0.1,0,-0.1,-0.1,-0.1c-0.1,-0.1,-0.1,-0.1,-0.1,-0.1c-0.1,-0.1,-0.1,-0.1,-0.1,-0.1c-0.1,0,-0.1,0,-0.2,0h-4.8c-0.1,0,-0.1,0,-0.2,0s-0.1,0.1,-0.1,0.1c-0.1,0.1,-0.1,0.1,-0.1,0.1c-0.1,0.1,-0.1,0.1,-0.1,0.1l0.1,2.2C69.1,90.8,69.1,90.9,69.2,90.9L69.2,90.9L69.2,90.9zM75.6,90.9c0.1,0.1,0.1,0.1,0.1,0.1c0.1,0.1,0.1,0.1,0.1,0.1c0.1,0,0.1,0,0.2,0h4.9c0.1,0,0.1,0,0.2,0s0.1,-0.1,0.1,-0.1c0.1,-0.1,0.1,-0.1,0.1,-0.1c0.1,-0.1,0.1,-0.1,0.1,-0.1l-0.2,-2.2c0,-0.1,-0.1,-0.1,-0.1,-0.1c-0.1,-0.1,-0.1,-0.1,-0.1,-0.1c-0.1,-0.1,-0.1,-0.1,-0.1,-0.1c-0.1,0,-0.1,0,-0.2,0h-4.8c-0.1,0,-0.1,0,-0.2,0s-0.1,0.1,-0.1,0.1s-0.1,0.1,-0.1,0.1c-0.1,0.1,-0.1,0.1,-0.1,0.1l0.1,2.2C75.6,90.8,75.6,90.9,75.6,90.9zM82.2,90.9c0.1,0.1,0.1,0.1,0.1,0.1c0.1,0.1,0.1,0.1,0.1,0.1c0.1,0,0.1,0,0.2,0h4.9c0.1,0,0.1,0,0.2,0s0.1,-0.1,0.1,-0.1c0.1,-0.1,0.1,-0.1,0.1,-0.1c0.1,-0.1,0.1,-0.1,0.1,-0.1l-0.3,-2.2c0,-0.1,-0.1,-0.1,-0.1,-0.1c-0.1,-0.1,-0.1,-0.1,-0.1,-0.1c-0.1,-0.1,-0.1,-0.1,-0.1,-0.1c-0.1,0,-0.1,0,-0.2,0h-4.8c-0.1,0,-0.1,0,-0.2,0s-0.1,0.1,-0.1,0.1c-0.1,0.1,-0.1,0.1,-0.1,0.1c-0.1,0.1,-0.1,0.1,-0.1,0.1l0.2,2.2C82.1,90.8,82.1,90.9,82.2,90.9L82.2,90.9zM88.8,90.9c0.1,0.1,0.1,0.1,0.1,0.1c0.1,0.1,0.1,0.1,0.1,0.1c0.1,0,0.1,0,0.2,0h9c0.1,0,0.1,0,0.2,0s0.1,-0.1,0.1,-0.1c0.1,0,0.1,-0.1,0.1,-0.1c0.1,-0.1,0.1,-0.1,0.1,-0.1l-0.3,-2.2c0,-0.1,-0.1,-0.1,-0.1,-0.1c-0.1,-0.1,-0.1,-0.1,-0.1,-0.1c-0.1,-0.1,-0.1,-0.1,-0.1,-0.1c-0.1,0,-0.1,0,-0.2,0h-8.9c-0.1,0,-0.1,0,-0.2,0s-0.1,0.1,-0.1,0.1c-0.1,0.1,-0.1,0.1,-0.1,0.1c-0.1,0.1,-0.1,0.1,-0.1,0.1l0.3,2.2C88.7,90.8,88.7,90.9,88.8,90.9L88.8,90.9zM109.9,82.2h-4.7c-0.1,0,-0.1,0,-0.2,0s-0.1,0.1,-0.1,0.1c-0.1,0.1,-0.1,0.1,-0.1,0.1c-0.1,0.1,-0.1,0.1,-0.1,0.1l0.4,2.1c0,0.1,0.1,0.1,0.1,0.1c0.1,0.1,0.1,0.1,0.1,0.1c0.1,0.1,0.1,0.1,0.1,0.1c0.1,0,0.1,0,0.2,0h4.7c0.1,0,0.1,0,0.2,0c0.1,0,0.1,-0.1,0.1,-0.1c0.1,-0.1,0.1,-0.1,0.1,-0.1c0,-0.1,0.1,-0.1,0,-0.1l-0.4,-2.1c0,-0.1,-0.1,-0.1,-0.1,-0.1c-0.1,-0.1,-0.1,-0.1,-0.1,-0.1c-0.1,-0.1,-0.1,-0.1,-0.1,-0.1S109.9,82.2,109.9,82.2L109.9,82.2zM110.6,85.3c-0.1,0,-0.1,0,-0.2,0h-4.8c-0.1,0,-0.1,0,-0.2,0c-0.1,0,-0.1,0.1,-0.1,0.1c-0.1,0.1,-0.1,0.1,-0.1,0.1c-0.1,0.1,-0.1,0.1,-0.1,0.1l0.4,2.1c0,0.1,0.1,0.1,0.1,0.1c0.1,0.1,0.1,0.1,0.1,0.1c0.1,0.1,0.1,0.1,0.2,0.1s0.1,0,0.2,0h4.8c0.1,0,0.1,0,0.2,0c0.1,0,0.1,-0.1,0.1,-0.1c0.1,-0.1,0.1,-0.1,0.1,-0.1c0.1,-0.1,0.1,-0.1,0,-0.1l-0.4,-2.1c0,-0.1,-0.1,-0.1,-0.1,-0.1c-0.1,-0.1,-0.1,-0.1,-0.1,-0.1C110.7,85.3,110.6,85.3,110.6,85.3L110.6,85.3zM106.7,91.1H111.6c0.1,0,0.1,0,0.2,0c0.1,0,0.1,-0.1,0.1,-0.1c0.1,-0.1,0.1,-0.1,0.1,-0.1c0.1,-0.1,0.1,-0.1,0,-0.1l-0.4,-2.2c0,-0.1,-0.1,-0.1,-0.1,-0.1c-0.1,-0.1,-0.1,-0.1,-0.1,-0.1c-0.1,-0.1,-0.1,-0.1,-0.2,-0.1c-0.1,0,-0.1,0,-0.2,0H106.1c-0.1,0,-0.1,0,-0.2,0s-0.1,0.1,-0.1,0.1c-0.1,0.1,-0.1,0.1,-0.1,0.1c-0.1,0.1,-0.1,0.1,-0.1,0.1l0.4,2.2c0,0.1,0.1,0.1,0.1,0.1c0.1,0.1,0.1,0.1,0.1,0.1c0.1,0.1,0.1,0.1,0.2,0.1S106.7,91.1,106.7,91.1L106.7,91.1zM112.7,94.1l-0.4,-2.3c0,-0.1,-0.1,-0.1,-0.1,-0.1c-0.1,-0.1,-0.1,-0.1,-0.1,-0.1c-0.1,-0.1,-0.1,-0.1,-0.2,-0.1c-0.1,0,-0.1,0,-0.2,0h-4.9c-0.1,0,-0.1,0,-0.2,0s-0.1,0.1,-0.1,0.1c-0.1,0.1,-0.1,0.1,-0.1,0.1c-0.1,0.1,-0.1,0.1,-0.1,0.1l0.4,2.3c0,0.1,0.1,0.1,0.1,0.1c0.1,0.1,0.1,0.1,0.1,0.1c0.1,0.1,0.1,0.1,0.2,0.1s0.1,0,0.2,0H112.2c0.1,0,0.1,0,0.2,0c0.1,0,0.1,-0.1,0.1,-0.1c0.1,-0.1,0.1,-0.1,0.1,-0.1C112.7,94.1,112.7,94.1,112.7,94.1zM99.9,91.1c0.1,0,0.1,0,0.2,0h4.9c0.1,0,0.1,0,0.2,0s0.1,-0.1,0.1,-0.1c0.1,-0.1,0.1,-0.1,0.1,-0.1c0.1,-0.1,0.1,-0.1,0.1,-0.1l-0.4,-2.2c0,-0.1,-0.1,-0.1,-0.1,-0.1c-0.1,-0.1,-0.1,-0.1,-0.1,-0.1c-0.1,-0.1,-0.1,-0.1,-0.1,-0.1c-0.1,0,-0.1,0,-0.2,0h-4.8c-0.1,0,-0.1,0,-0.2,0s-0.1,0.1,-0.1,0.1c-0.1,0.1,-0.1,0.1,-0.1,0.1c-0.1,0.1,-0.1,0.1,-0.1,0.1l0.4,2.2c0,0.1,0.1,0.1,0.1,0.1c0.1,0.1,0.1,0.1,0.1,0.1C99.7,91,99.8,91,99.9,91.1zM105.5,91.7c-0.1,-0.1,-0.1,-0.1,-0.1,-0.1c-0.1,-0.1,-0.1,-0.1,-0.2,-0.1c-0.1,0,-0.1,0,-0.2,0h-4.9c-0.1,0,-0.1,0,-0.2,0s-0.1,0.1,-0.1,0.1c-0.1,0.1,-0.1,0.1,-0.1,0.1c-0.1,0.1,-0.1,0.1,-0.1,0.1l0.4,2.3c0,0.1,0.1,0.1,0.1,0.1c0.1,0.1,0.1,0.1,0.1,0.1c0.1,0.1,0.1,0.1,0.2,0.1s0.1,0,0.2,0h4.9c0.1,0,0.1,0,0.2,0s0.1,-0.1,0.1,-0.1c0.1,-0.1,0.1,-0.1,0.1,-0.1c0.1,-0.1,0.1,-0.1,0.1,-0.1l-0.4,-2.3C105.6,91.7,105.5,91.7,105.5,91.7L105.5,91.7zM98.8,91.7c-0.1,-0.1,-0.1,-0.1,-0.1,-0.1c-0.1,-0.1,-0.1,-0.1,-0.2,-0.1s-0.1,0,-0.2,0h-4.9c-0.1,0,-0.1,0,-0.2,0s-0.1,0.1,-0.1,0.1c-0.1,0.1,-0.1,0.1,-0.1,0.1c-0.1,0.1,-0.1,0.1,-0.1,0.1l0.3,2.3c0,0.1,0.1,0.1,0.1,0.1c0.1,0.1,0.1,0.1,0.1,0.1c0.1,0.1,0.1,0.1,0.2,0.1s0.1,0,0.2,0h4.9c0.1,0,0.1,0,0.2,0s0.1,-0.1,0.1,-0.1c0.1,-0.1,0.1,-0.1,0.1,-0.1c0.1,0,0.1,-0.1,0.1,-0.1l-0.4,-2.3C98.8,91.7,98.8,91.7,98.8,91.7L98.8,91.7L98.8,91.7zM83.9,91.7c-0.1,-0.1,-0.1,-0.1,-0.1,-0.1c-0.1,-0.1,-0.1,-0.1,-0.1,-0.1c-0.1,0,-0.1,0,-0.2,0h-4.9c-0.1,0,-0.1,0,-0.2,0s-0.1,0.1,-0.1,0.1c-0.1,0.1,-0.1,0.1,-0.1,0.1c-0.1,0.1,-0.1,0.1,-0.1,0.1l0.2,2.3c0,0.1,0.1,0.1,0.1,0.1c0.1,0.1,0.1,0.1,0.1,0.1c0.1,0.1,0.1,0.1,0.1,0.1c0.1,0,0.1,0,0.2,0H83.6c0.1,0,0.1,0,0.2,0s0.1,-0.1,0.1,-0.1c0.1,-0.1,0.1,-0.1,0.1,-0.1c0.1,-0.1,0.1,-0.1,0.1,-0.1l-0.2,-2.3C84,91.7,84,91.7,83.9,91.7L83.9,91.7zM77.2,91.7c-0.1,-0.1,-0.1,-0.1,-0.1,-0.1c-0.1,-0.1,-0.1,-0.1,-0.1,-0.1c-0.1,0,-0.1,0,-0.2,0h-4.9c-0.1,0,-0.1,0,-0.2,0s-0.1,0.1,-0.1,0.1c-0.1,0.1,-0.1,0.1,-0.1,0.1c-0.1,0.1,-0.1,0.1,-0.1,0.1l0.1,2.3c0,0.1,0,0.1,0.1,0.1c0.1,0.1,0.1,0.1,0.1,0.1c0.1,0.1,0.1,0.1,0.1,0.1c0.1,0,0.1,0,0.2,0h4.9c0.1,0,0.1,0,0.2,0s0.1,-0.1,0.1,-0.1c0.1,-0.1,0.1,-0.1,0.1,-0.1c0.1,-0.1,0.1,-0.1,0.1,-0.1l-0.1,-2.3C77.2,91.7,77.2,91.7,77.2,91.7L77.2,91.7zM70.3,91.7c-0.1,-0.1,-0.1,-0.1,-0.1,-0.1c-0.1,-0.1,-0.1,-0.1,-0.1,-0.1c-0.1,0,-0.1,0,-0.2,0H37c-0.1,0,-0.1,0,-0.2,0c-0.1,0,-0.1,0.1,-0.1,0.1c-0.1,0.1,-0.1,0.1,-0.1,0.1c-0.1,0.1,-0.1,0.1,-0.1,0.1l-0.2,2.3c0,0.1,0,0.1,0.1,0.1c0.1,0.1,0.1,0.1,0.1,0.1c0.1,0.1,0.1,0.1,0.1,0.1c0.1,0,0.1,0,0.2,0h33.3c0.1,0,0.1,0,0.2,0s0.1,-0.1,0.1,-0.1c0.1,-0.1,0.1,-0.1,0.1,-0.1c0.1,-0.1,0.1,-0.1,0.1,-0.1l-0.1,-2.3C70.4,91.7,70.4,91.7,70.3,91.7L70.3,91.7zM14.9,91.6c-0.1,-0.1,-0.1,-0.1,-0.1,-0.1c-0.1,0,-0.1,0,-0.2,0H8.5c-0.1,0,-0.1,0,-0.2,0c-0.1,0,-0.1,0.1,-0.2,0.1c-0.1,0.1,-0.1,0.1,-0.1,0.1c-0.1,0.1,-0.1,0.1,-0.1,0.1l-0.4,2.3c0,0.1,0,0.1,0,0.1c0,0.1,0.1,0.1,0.1,0.1s0.1,0.1,0.1,0.1c0.1,0,0.1,0,0.2,0h6.2c0.1,0,0.1,0,0.2,0s0.1,-0.1,0.2,-0.1c0.1,-0.1,0.1,-0.1,0.1,-0.1c0.1,-0.1,0.1,-0.1,0.1,-0.1l0.4,-2.3c0,-0.1,0,-0.1,-0.1,-0.1C15,91.6,14.9,91.6,14.9,91.6L14.9,91.6zM91.9,91.7c-0.1,-0.1,-0.1,-0.1,-0.1,-0.1c-0.1,-0.1,-0.1,-0.1,-0.1,-0.1c-0.1,0,-0.1,0,-0.2,0h-6.1c-0.1,0,-0.1,0,-0.2,0c-0.1,0,-0.1,0.1,-0.1,0.1c-0.1,0.1,-0.1,0.1,-0.1,0.1c-0.1,0.1,-0.1,0.1,-0.1,0.1l0.2,2.3c0,0.1,0.1,0.1,0.1,0.1c0.1,0.1,0.1,0.1,0.1,0.1c0.1,0.1,0.1,0.1,0.1,0.1c0.1,0,0.1,0,0.2,0h6.2c0.1,0,0.1,0,0.2,0s0.1,-0.1,0.1,-0.1c0.1,-0.1,0.1,-0.1,0.1,-0.1c0.1,-0.1,0.1,-0.1,0.1,-0.1l-0.3,-2.3C92,91.7,91.9,91.7,91.9,91.7L91.9,91.7zM10.8,78.9c0.1,0,0.1,0.1,0.1,0.1s0.1,0,0.2,0h4.4c0.1,0,0.1,0,0.2,0s0.1,-0.1,0.1,-0.1c0.1,0,0.1,-0.1,0.1,-0.1c0.1,-0.1,0.1,-0.1,0.1,-0.1l0.2,-1.3c0,-0.1,0,-0.1,0,-0.1c0,-0.1,-0.1,-0.1,-0.1,-0.1c-0.1,0,-0.1,-0.1,-0.1,-0.1c-0.1,0,-0.1,0,-0.2,0H11.5c-0.1,0,-0.1,0,-0.2,0s-0.1,0.1,-0.1,0.1c-0.1,0,-0.1,0.1,-0.1,0.1c-0.1,0.1,-0.1,0.1,-0.1,0.1l-0.3,1.3c0,0.1,0,0.1,0,0.1C10.8,78.9,10.8,78.9,10.8,78.9L10.8,78.9zM16.7,78.9c0.1,0,0.1,0.1,0.1,0.1c0.1,0,0.1,0,0.2,0h4.4c0.1,0,0.1,0,0.2,0s0.1,-0.1,0.1,-0.1s0.1,-0.1,0.1,-0.1c0.1,-0.1,0.1,-0.1,0.1,-0.1l0.2,-1.3c0,-0.1,0,-0.1,-0.1,-0.1c0,-0.1,-0.1,-0.1,-0.1,-0.1c-0.1,0,-0.1,-0.1,-0.1,-0.1c-0.1,0,-0.1,0,-0.2,0H17.3c-0.1,0,-0.1,0,-0.2,0c-0.1,0,-0.1,0.1,-0.1,0.1s-0.1,0.1,-0.1,0.1c-0.1,0.1,-0.1,0.1,-0.1,0.1l-0.2,1.3c0,0.1,0,0.1,0,0.1C16.6,78.9,16.6,78.9,16.7,78.9L16.7,78.9zM22.5,78.9c0.1,0,0.1,0.1,0.1,0.1c0.1,0,0.1,0,0.2,0h4.4c0.1,0,0.1,0,0.2,0s0.1,-0.1,0.1,-0.1s0.1,-0.1,0.1,-0.1c0.1,-0.1,0.1,-0.1,0.1,-0.1l0.1,-1.3c0,-0.1,0,-0.1,-0.1,-0.1c0,-0.1,-0.1,-0.1,-0.1,-0.1c-0.1,0,-0.1,-0.1,-0.1,-0.1s-0.1,0,-0.2,0h-4.3c-0.1,0,-0.1,0,-0.2,0s-0.1,0.1,-0.1,0.1s-0.1,0.1,-0.1,0.1c-0.1,0.1,-0.1,0.1,-0.1,0.1l-0.2,1.3c0,0.1,0,0.1,0.1,0.1C22.4,78.9,22.5,78.9,22.5,78.9L22.5,78.9zM28.3,78.9c0.1,0,0.1,0.1,0.1,0.1s0.1,0,0.2,0h4.4c0.1,0,0.1,0,0.2,0c0.1,0,0.1,-0.1,0.1,-0.1c0.1,0,0.1,-0.1,0.1,-0.1c0.1,-0.1,0.1,-0.1,0.1,-0.1l0.1,-1.3c0,-0.1,0,-0.1,-0.1,-0.1c-0.1,-0.1,-0.1,-0.1,-0.1,-0.1c-0.1,0,-0.1,-0.1,-0.1,-0.1s-0.1,0,-0.2,0h-4.3c-0.1,0,-0.1,0,-0.2,0s-0.1,0.1,-0.1,0.1s-0.1,0.1,-0.1,0.1c-0.1,0.1,-0.1,0.1,-0.1,0.1l-0.1,1.3c0,0.1,0,0.1,0.1,0.1C28.3,78.9,28.3,78.9,28.3,78.9L28.3,78.9L28.3,78.9zM34.2,78.9c0.1,0,0.1,0.1,0.1,0.1s0.1,0,0.2,0h4.4c0.1,0,0.1,0,0.2,0c0.1,0,0.1,-0.1,0.1,-0.1s0.1,-0.1,0.1,-0.1c0.1,-0.1,0.1,-0.1,0.1,-0.1l0.1,-1.3c0,-0.1,0,-0.1,-0.1,-0.1c-0.1,-0.1,-0.1,-0.1,-0.1,-0.1c-0.1,0,-0.1,-0.1,-0.1,-0.1s-0.1,0,-0.2,0h-4.3c-0.1,0,-0.1,0,-0.2,0c-0.1,0,-0.1,0.1,-0.1,0.1c-0.1,0,-0.1,0.1,-0.1,0.1c-0.1,0.1,-0.1,0.1,-0.1,0.1l-0.1,1.3c0,0.1,0,0.1,0.1,0.1C34.2,78.9,34.2,78.9,34.2,78.9L34.2,78.9zM40.1,78.9c0.1,0,0.1,0.1,0.1,0.1s0.1,0,0.2,0h4.4c0.1,0,0.1,0,0.2,0c0.1,0,0.1,-0.1,0.1,-0.1c0.1,0,0.1,-0.1,0.1,-0.1c0.1,-0.1,0.1,-0.1,0.1,-0.1l0.1,-1.3c0,-0.1,0,-0.1,-0.1,-0.1c-0.1,-0.1,-0.1,-0.1,-0.1,-0.1c-0.1,0,-0.1,-0.1,-0.1,-0.1s-0.1,0,-0.2,0h-4.3c-0.1,0,-0.1,0,-0.2,0c-0.1,0,-0.1,0.1,-0.1,0.1c-0.1,0,-0.1,0.1,-0.1,0.1c-0.1,0.1,-0.1,0.1,-0.1,0.1l-0.1,1.3c0,0.1,0,0.1,0.1,0.1C40,78.9,40.1,78.9,40.1,78.9L40.1,78.9zM46,78.9c0.1,0,0.1,0.1,0.1,0.1s0.1,0,0.2,0H50.6c0.1,0,0.1,0,0.2,0c0.1,0,0.1,-0.1,0.1,-0.1c0.1,0,0.1,-0.1,0.1,-0.1c0.1,-0.1,0.1,-0.1,0.1,-0.1l0.1,-1.3c0,-0.1,0,-0.1,-0.1,-0.1c-0.1,-0.1,-0.1,-0.1,-0.1,-0.1c-0.1,0,-0.1,-0.1,-0.1,-0.1c-0.1,0,-0.1,0,-0.2,0h-4.3c-0.1,0,-0.1,0,-0.2,0c-0.1,0,-0.1,0.1,-0.1,0.1c-0.1,0,-0.1,0.1,-0.1,0.1c-0.1,0.1,-0.1,0.1,-0.1,0.1l-0.1,1.3c0,0.1,0,0.1,0.1,0.1C45.8,78.9,45.9,78.9,46,78.9L46,78.9zM51.8,78.9c0.1,0,0.1,0.1,0.1,0.1s0.1,0,0.2,0h4.4c0.1,0,0.1,0,0.2,0s0.1,-0.1,0.1,-0.1c0.1,0,0.1,-0.1,0.1,-0.1c0.1,-0.1,0.1,-0.1,0.1,-0.1v-1.3c0,-0.1,0,-0.1,-0.1,-0.1c-0.1,-0.1,-0.1,-0.1,-0.1,-0.1c-0.1,0,-0.1,-0.1,-0.1,-0.1s-0.1,0,-0.2,0h-4.3c-0.1,0,-0.1,0,-0.2,0s-0.1,0.1,-0.1,0.1c-0.1,0,-0.1,0.1,-0.1,0.1c-0.1,0.1,-0.1,0.1,-0.1,0.1l-0.1,1.3c0,0.1,0,0.1,0.1,0.1C51.7,78.9,51.7,78.9,51.8,78.9zM57.7,78.9c0.1,0,0.1,0.1,0.1,0.1s0.1,0,0.2,0h4.4c0.1,0,0.1,0,0.2,0s0.1,-0.1,0.1,-0.1c0.1,0,0.1,-0.1,0.1,-0.1c0.1,-0.1,0.1,-0.1,0.1,-0.1v-1.3c0,-0.1,0,-0.1,-0.1,-0.1c-0.1,-0.1,-0.1,-0.1,-0.1,-0.1c-0.1,0,-0.1,-0.1,-0.1,-0.1c-0.1,0,-0.1,0,-0.2,0h-4.3c-0.1,0,-0.1,0,-0.2,0s-0.1,0.1,-0.1,0.1s-0.1,0.1,-0.1,0.1c-0.1,0.1,-0.1,0.1,-0.1,0.1v1.3c0,0.1,0,0.1,0.1,0.1C57.6,78.9,57.6,78.9,57.7,78.9L57.7,78.9zM63.5,78.8c0.1,0.1,0.1,0.1,0.1,0.1s0.1,0.1,0.1,0.1s0.1,0,0.2,0h4.4c0.1,0,0.1,0,0.2,0s0.1,-0.1,0.1,-0.1c0.1,0,0.1,-0.1,0.1,-0.1c0.1,-0.1,0.1,-0.1,0.1,-0.1l-0.1,-1.3c0,-0.1,0,-0.1,-0.1,-0.1c-0.1,-0.1,-0.1,-0.1,-0.1,-0.1s-0.1,-0.1,-0.1,-0.1s-0.1,0,-0.2,0h-4.3c-0.1,0,-0.1,0,-0.2,0s-0.1,0.1,-0.1,0.1c-0.1,0,-0.1,0.1,-0.1,0.1c-0.1,0.1,-0.1,0.1,-0.1,0.1l0.1,1.3C63.4,78.8,63.4,78.8,63.5,78.8L63.5,78.8zM69.3,78.8c0.1,0.1,0.1,0.1,0.1,0.1c0.1,0,0.1,0.1,0.1,0.1s0.1,0,0.2,0h4.4c0.1,0,0.1,0,0.2,0s0.1,-0.1,0.1,-0.1l0.1,-0.1c0.1,-0.1,0.1,-0.1,0.1,-0.1l-0.1,-1.3c0,-0.1,0,-0.1,-0.1,-0.1c-0.1,-0.1,-0.1,-0.1,-0.1,-0.1s-0.1,-0.1,-0.1,-0.1c-0.1,0,-0.1,0,-0.2,0h-4.3c-0.1,0,-0.1,0,-0.2,0s-0.1,0.1,-0.1,0.1c-0.1,0,-0.1,0.1,-0.1,0.1c-0.1,0.1,-0.1,0.1,-0.1,0.1l0.1,1.3C69.2,78.8,69.2,78.8,69.3,78.8L69.3,78.8zM75.1,78.8c0.1,0.1,0.1,0.1,0.1,0.1c0.1,0,0.1,0.1,0.1,0.1c0.1,0,0.1,0,0.2,0h4.4c0.1,0,0.1,0,0.2,0s0.1,-0.1,0.1,-0.1c0.1,0,0.1,-0.1,0.1,-0.1c0.1,-0.1,0.1,-0.1,0.1,-0.1l-0.1,-1.3c0,-0.1,0,-0.1,-0.1,-0.1c-0.1,-0.1,-0.1,-0.1,-0.1,-0.1c-0.1,0,-0.1,-0.1,-0.1,-0.1s-0.1,0,-0.2,0H75.4c-0.1,0,-0.1,0,-0.2,0s-0.1,0.1,-0.1,0.1c-0.1,0,-0.1,0.1,-0.1,0.1c-0.1,0.1,-0.1,0.1,-0.1,0.1l0.1,1.3C75,78.8,75,78.8,75.1,78.8L75.1,78.8zM81,78.8c0.1,0.1,0.1,0.1,0.1,0.1s0.1,0.1,0.1,0.1s0.1,0,0.2,0h4.4c0.1,0,0.1,0,0.2,0s0.1,-0.1,0.1,-0.1l0.1,-0.1c0.1,-0.1,0.1,-0.1,0.1,-0.1l-0.1,-1.3c0,-0.1,-0.1,-0.1,-0.1,-0.1c-0.1,-0.1,-0.1,-0.1,-0.1,-0.1c-0.1,0,-0.1,-0.1,-0.1,-0.1s-0.1,0,-0.2,0h-4.3c-0.1,0,-0.1,0,-0.2,0s-0.1,0.1,-0.1,0.1l-0.1,0.1c-0.1,0.1,-0.1,0.1,-0.1,0.1l0.1,1.3C81,78.8,81,78.8,81,78.8L81,78.8zM86.9,78.8c0.1,0.1,0.1,0.1,0.1,0.1c0.1,0,0.1,0.1,0.1,0.1c0.1,0,0.1,0,0.2,0h4.4c0.1,0,0.1,0,0.2,0s0.1,-0.1,0.1,-0.1c0.1,0,0.1,-0.1,0.1,-0.1c0,-0.1,0.1,-0.1,0.1,-0.1l-0.2,-1.3c0,-0.1,-0.1,-0.1,-0.1,-0.1c-0.1,-0.1,-0.1,-0.1,-0.1,-0.1c-0.1,0,-0.1,-0.1,-0.1,-0.1c-0.1,0,-0.1,0,-0.2,0h-4.3c-0.1,0,-0.1,0,-0.2,0s-0.1,0.1,-0.1,0.1c-0.1,0,-0.1,0.1,-0.1,0.1c-0.1,0.1,-0.1,0.1,-0.1,0.1l0.1,1.3C86.8,78.8,86.9,78.8,86.9,78.8L86.9,78.8zM92.7,78.8c0.1,0.1,0.1,0.1,0.1,0.1c0.1,0,0.1,0.1,0.1,0.1s0.1,0,0.2,0H97.5c0.1,0,0.1,0,0.2,0s0.1,-0.1,0.1,-0.1c0.1,0,0.1,-0.1,0.1,-0.1c0,-0.1,0.1,-0.1,0.1,-0.1l-0.2,-1.3c0,-0.1,-0.1,-0.1,-0.1,-0.1c-0.1,-0.1,-0.1,-0.1,-0.1,-0.1c-0.1,0,-0.1,-0.1,-0.1,-0.1s-0.1,0,-0.2,0h-4.3c-0.1,0,-0.1,0,-0.2,0s-0.1,0.1,-0.1,0.1c-0.1,0,-0.1,0.1,-0.1,0.1c0,0.1,-0.1,0.1,-0.1,0.1l0.2,1.3C92.7,78.8,92.7,78.8,92.7,78.8L92.7,78.8zM98.5,78.8c0.1,0.1,0.1,0.1,0.1,0.1c0.1,0,0.1,0.1,0.1,0.1c0.1,0,0.1,0,0.2,0h4.4c0.1,0,0.1,0,0.2,0s0.1,-0.1,0.1,-0.1l0.1,-0.1c0,-0.1,0.1,-0.1,0,-0.1l-0.2,-1.3c0,-0.1,-0.1,-0.1,-0.1,-0.1c-0.1,-0.1,-0.1,-0.1,-0.1,-0.1c-0.1,0,-0.1,-0.1,-0.1,-0.1s-0.1,0,-0.2,0h-4.3c-0.1,0,-0.1,0,-0.2,0s-0.1,0.1,-0.1,0.1c-0.1,0,-0.1,0.1,-0.1,0.1c-0.1,0.1,-0.1,0.1,-0.1,0.1l0.2,1.3C98.5,78.8,98.5,78.8,98.5,78.8L98.5,78.8zM104.4,78.8c0.1,0.1,0.1,0.1,0.1,0.1c0.1,0,0.1,0.1,0.1,0.1s0.1,0,0.2,0h4.4c0.1,0,0.1,0,0.2,0c0.1,0,0.1,-0.1,0.1,-0.1c0.1,0,0.1,-0.1,0.1,-0.1c0,-0.1,0.1,-0.1,0,-0.1l-0.3,-1.3c0,-0.1,-0.1,-0.1,-0.1,-0.1c-0.1,-0.1,-0.1,-0.1,-0.1,-0.1c-0.1,0,-0.1,-0.1,-0.1,-0.1s-0.1,0,-0.2,0h-4.3c-0.1,0,-0.1,0,-0.2,0s-0.1,0.1,-0.1,0.1l-0.1,0.1c-0.1,0.1,-0.1,0.1,-0.1,0.1l0.2,1.3C104.3,78.8,104.4,78.8,104.4,78.8L104.4,78.8z"/>
    <polygon points="109.2,71 10.8,71 12.1,3.9 108,3.9"/>
    <path d="M73.3,99.5c0,-0.2,-0.1,-0.2,-0.2,-0.4c-0.1,-0.2,-0.3,-0.2,-0.4,-0.3c-0.2,-0.1,-0.4,-0.2,-0.6,-0.2c-0.2,-0.1,-0.4,-0.1,-0.7,-0.1H46.5c-0.3,0,-0.5,0.1,-0.7,0.1c-0.2,0.1,-0.4,0.2,-0.6,0.2c-0.2,0.1,-0.3,0.2,-0.4,0.3c-0.1,0.2,-0.2,0.2,-0.2,0.4l-0.4,4.9h29.4L73.3,99.5z"/>
    <path d="M71.3,98.5L71.3,98.5L71.3,98.5z"/>
    <path d="M73.5,104.5L73.5,104.5H44.2l-0.2,2.4c0,0.2,0.1,0.3,0.1,0.5c0.1,0.2,0.2,0.2,0.4,0.3c0.2,0.1,0.4,0.2,0.6,0.2s0.4,0.1,0.7,0.1h26c0.3,0,0.5,-0.1,0.8,-0.1c0.2,-0.1,0.4,-0.2,0.6,-0.2c0.2,-0.1,0.3,-0.2,0.4,-0.3c0.1,-0.2,0.1,-0.2,0.1,-0.5L73.5,104.5z"/>
</g>
<rect x="15.2" y="12.7" width="89.5" height="52.1" fill="none"/>
<path fill="none" d="M112.2,75.2c0,-0.1,-0.1,-0.2,-0.1,-0.2c-0.1,-0.1,-0.1,-0.1,-0.3,-0.2c-0.1,-0.1,-0.2,-0.1,-0.4,-0.2c-0.1,-0,-0.2,-0.1,-0.2,-0.1v-0.3h0.1c0.1,0,0.3,0,0.4,-0.1c0.1,0,0.2,-0.1,0.3,-0.2c0.1,-0.2,0.1,-0.3,0.2,-0.5c0.1,-0.2,0.1,-0.4,0.1,-0.5L110.6,1.2c-0.1,-0.2,-0.1,-0.3,-0.1,-0.5c0,-0.2,-0.1,-0.3,-0.2,-0.4c-0.1,-0.1,-0.3,-0.2,-0.3,-0.2c-0.1,0,-0.3,-0.1,-0.4,-0.1H10.4c-0.1,0,-0.3,0.1,-0.4,0.2c-0.1,0.1,-0.2,0.2,-0.3,0.2c-0.1,0.2,-0.1,0.2,-0.2,0.4c-0.1,0.2,-0.1,0.3,-0.1,0.5l-1.6,71.7c0,0.2,0,0.4,0.1,0.5c0,0.2,0.1,0.3,0.2,0.5c0.1,0.1,0.2,0.2,0.3,0.2c0.1,0,0.3,0.1,0.4,0.1v0.3c-0.1,0,-0.3,0,-0.4,0.1c-0.2,0.1,-0.3,0.1,-0.4,0.2c-0.1,0,-0.2,0.1,-0.3,0.2c-0.1,0.1,-0.1,0.2,-0.1,0.2L0,110.5c0,0.9,0.1,2,0.2,2.9c0,0.1,0,0.2,0.1,0.2c0,0,0.3,0.2,0.5,0.3c0.1,0.1,0.3,0.1,0.4,0.1l0,0h117.4v0c0.1,0,0.5,0,0.7,-0.1c0.1,-0.1,0.5,-0.5,0.5,-0.5c0.1,-0.9,0.1,-2,0.2,-2.9L112.2,75.2z"/>
<circle fill="none" cx="60.1" cy="0" r="0.1"/>
<circle fill="none" cx="85.3" cy="0" r="0.1"/>
<circle fill="none" cx="111" cy="19.5" r="0.1"/>
<circle fill="none" cx="111.9" cy="56.2" r="0.1"/>
<circle fill="none" cx="116.1" cy="92.8" r="0.1"/>
<circle fill="none" cx="89.7" cy="114" r="0.1"/>
<circle fill="none" cx="60" cy="114" r="0.1"/>
<circle fill="none" cx="30.3" cy="114" r="0.1"/>
<circle fill="none" cx="3.8" cy="92.8" r="0.1"/>
<circle fill="none" cx="8.2" cy="56.2" r="0.1"/>
<circle fill="none" cx="9" cy="19.5" r="0.1"/>
<circle fill="none" cx="34.9" cy="0" r="0.1"/>
</g></g><rect stroke="none" stroke-width="0" fill="#FFFFFF" x="0" y="0" width="0" height="0" transform="translate(111.8,56.1)"/><path stroke="#000000" fill="none" d=""/><text font-family="OpenSansCondensedLight" font-size="14pt" fill="black" transform="translate(111.8,56.1)"/><rect stroke-width="0" fill="none" width="89.5" height="52.1" transform="translate(15.2,12.7)"/><text font-family="OpenSansCondensedLight" font-size="14pt" fill="black" transform="translate(15.2,12.7)" text-anchor="middle"><tspan x="44.7" y="16.8"> 114</tspan></text><path stroke="#000000" fill="none" transform="translate(15.2,12.7)" d="M 31.1 19 58.4 19"/></g></g><defs/></svg>